<svg data-v-423bf9ae="" xmlns="http://www.w3.org/2000/svg" viewBox="0 0 579 90" class="iconLeft"><!----><!----><!----><g data-v-423bf9ae="" id="26d90762-d3bc-43ba-b059-90938b72ab8e" fill="white" transform="matrix(6.122448921203613,0,0,6.122448921203613,108.00006866455078,-6.4285688400268555)"><path d="M4.26 13.12C4.26 13.22 4.34 13.30 4.44 13.30C4.54 13.30 4.61 13.22 4.61 13.12L4.61 8.51L8.06 3.79C8.12 3.72 8.09 3.61 8.01 3.56C7.94 3.50 7.83 3.51 7.76 3.58L4.44 8.16L1.11 3.58C1.05 3.51 0.94 3.50 0.87 3.56C0.77 3.61 0.76 3.72 0.83 3.79L4.26 8.51L4.26 13.12ZM13.92 6.44C13.80 6.44 13.73 6.54 13.73 6.62L13.73 8.33C13.20 7.22 12.11 6.44 10.85 6.44C9.06 6.44 7.62 7.99 7.62 9.87C7.62 11.75 9.06 13.30 10.85 13.30C12.11 13.30 13.20 12.53 13.73 11.41L13.73 13.12C13.73 13.23 13.80 13.30 13.92 13.30C14.01 13.30 14.08 13.23 14.08 13.12L14.08 6.62C14.08 6.54 14.01 6.44 13.92 6.44ZM10.85 12.95C9.27 12.95 7.97 11.58 7.97 9.87C7.97 8.18 9.27 6.80 10.85 6.80C12.43 6.80 13.73 8.18 13.73 9.87C13.73 11.58 12.43 12.95 10.85 12.95ZM17.32 13.12L17.32 13.12C17.32 13.22 17.39 13.30 17.50 13.30L17.50 13.30C17.60 13.30 17.67 13.22 17.67 13.12L17.67 3.68L17.67 3.68C17.67 3.58 17.60 3.50 17.50 3.50L17.50 3.50C17.39 3.50 17.32 3.58 17.32 3.68L17.32 13.12ZM20.80 13.12L20.80 13.12C20.80 13.22 20.87 13.30 20.99 13.30L20.99 13.30C21.08 13.30 21.15 13.22 21.15 13.12L21.15 3.68L21.15 3.68C21.15 3.58 21.08 3.50 20.99 3.50L20.99 3.50C20.87 3.50 20.80 3.58 20.80 3.68L20.80 13.12ZM29.75 6.44C29.64 6.44 29.57 6.54 29.57 6.62L29.57 8.33C29.04 7.22 27.94 6.44 26.68 6.44C24.89 6.44 23.45 7.99 23.45 9.87C23.45 11.75 24.89 13.30 26.68 13.30C27.94 13.30 29.04 12.53 29.57 11.41L29.57 13.12C29.57 13.23 29.64 13.30 29.75 13.30C29.85 13.30 29.92 13.23 29.92 13.12L29.92 6.62C29.92 6.54 29.85 6.44 29.75 6.44ZM26.68 12.95C25.10 12.95 23.80 11.58 23.80 9.87C23.80 8.18 25.10 6.80 26.68 6.80C28.27 6.80 29.57 8.18 29.57 9.87C29.57 11.58 28.27 12.95 26.68 12.95ZM45.05 13.12C45.05 13.22 45.14 13.30 45.22 13.30C45.33 13.30 45.40 13.22 45.40 13.12L45.40 3.70C45.40 3.61 45.33 3.51 45.22 3.51C45.21 3.51 45.19 3.51 45.18 3.53C45.14 3.53 45.09 3.56 45.07 3.58L41.31 8.79L37.56 3.58C37.52 3.56 37.48 3.53 37.44 3.53C37.42 3.51 37.41 3.51 37.39 3.51C37.30 3.51 37.21 3.61 37.21 3.70L37.21 13.12C37.21 13.22 37.30 13.30 37.39 13.30C37.49 13.30 37.56 13.22 37.56 13.12L37.56 4.20L41.15 9.18C41.17 9.23 41.23 9.25 41.30 9.25L41.33 9.25C41.38 9.25 41.44 9.23 41.48 9.18L45.05 4.21L45.05 13.12ZM54.43 6.44C54.32 6.44 54.25 6.54 54.25 6.62L54.25 8.33C53.72 7.22 52.63 6.44 51.37 6.44C49.57 6.44 48.13 7.99 48.13 9.87C48.13 11.75 49.57 13.30 51.37 13.30C52.63 13.30 53.72 12.53 54.25 11.41L54.25 13.12C54.25 13.23 54.32 13.30 54.43 13.30C54.53 13.30 54.60 13.23 54.60 13.12L54.60 6.62C54.60 6.54 54.53 6.44 54.43 6.44ZM51.37 12.95C49.78 12.95 48.48 11.58 48.48 9.87C48.48 8.18 49.78 6.80 51.37 6.80C52.95 6.80 54.25 8.18 54.25 9.87C54.25 11.58 52.95 12.95 51.37 12.95ZM59.75 13.30C61.22 13.30 62.38 12.43 62.38 11.33C62.38 10.00 61.12 9.70 60.00 9.45C58.90 9.18 57.95 8.96 57.95 7.97C57.95 7.24 58.76 6.66 59.75 6.66C60.96 6.66 61.59 7.36 61.60 7.38C61.66 7.45 61.77 7.46 61.85 7.39C61.92 7.32 61.94 7.21 61.87 7.14C61.84 7.10 61.12 6.30 59.75 6.30C58.56 6.30 57.58 7.04 57.58 7.97C57.58 9.25 58.83 9.53 59.92 9.80C61.00 10.05 62.02 10.28 62.02 11.33C62.02 12.22 61.00 12.95 59.75 12.95C58.44 12.95 57.43 12.05 57.41 12.04C57.34 11.97 57.23 11.98 57.16 12.05C57.09 12.12 57.11 12.24 57.18 12.31C57.22 12.35 58.30 13.30 59.75 13.30ZM69.99 6.44C69.87 6.44 69.80 6.54 69.80 6.62L69.80 8.33C69.27 7.22 68.18 6.44 66.92 6.44C65.13 6.44 63.69 7.99 63.69 9.87C63.69 11.75 65.13 13.30 66.92 13.30C68.18 13.30 69.27 12.53 69.80 11.41L69.80 13.12C69.80 13.23 69.87 13.30 69.99 13.30C70.08 13.30 70.15 13.23 70.15 13.12L70.15 6.62C70.15 6.54 70.08 6.44 69.99 6.44ZM66.92 12.95C65.34 12.95 64.04 11.58 64.04 9.87C64.04 8.18 65.34 6.80 66.92 6.80C68.50 6.80 69.80 8.18 69.80 9.87C69.80 11.58 68.50 12.95 66.92 12.95ZM73.11 13.12C73.11 13.23 73.19 13.30 73.28 13.30C73.39 13.30 73.44 13.23 73.44 13.12L73.44 9.91C73.44 9.91 73.50 9.74 73.61 9.44C73.79 9.00 74.13 8.30 74.62 7.74C75.08 7.22 75.74 6.80 76.61 6.80C76.72 6.80 76.79 6.72 76.79 6.62C76.79 6.52 76.72 6.44 76.61 6.44C75.29 6.44 74.41 7.34 73.88 8.13C73.70 8.41 73.56 8.69 73.44 8.95L73.44 6.62C73.44 6.52 73.39 6.44 73.28 6.44C73.19 6.44 73.11 6.52 73.11 6.62L73.11 9.83C73.09 9.87 73.09 9.88 73.11 9.91L73.11 13.12Z"></path></g><!----><g data-v-423bf9ae="" id="72dab00f-2a5f-4cda-b431-3dc58cc68fcc" transform="matrix(1.0791436433792114,0,0,1.0791436433792114,-10.194107055664062,-7.554004192352295)" stroke="none" fill="white"><g data-name="Layer 2"><path d="M84.672 60.324a1 1 0 0 0-1.846-.039l-4.37 9.903-6.459-15.513a1 1 0 0 0-1.846 0L56.077 88.451a1 1 0 0 0 1.846.77l8.9-21.36 3.756 2.14a1 1 0 0 0 .991 0l3.75-2.143 1.98 4.755a.926.926 0 0 0 .053.077l-7.194 16.305a1 1 0 0 0 1.83.808l6.761-15.325 4.496 2.56a.999.999 0 0 0 .99 0l3.956-2.26 5.877 14.986a1 1 0 0 0 1.862-.73zm-13.599 7.658l-3.475-1.98 3.476-8.342 3.472 8.338zm12.667 7.037l-4.178-2.38 4.124-9.35 3.768 9.61zM27 42a1 1 0 0 0 2 0v-6.628l3.419 2.442a1 1 0 1 0 1.162-1.628L29 32.914v-1.828l3.419 2.442a1 1 0 0 0 1.162-1.627L29 28.628V26.8l3.419 2.442a1 1 0 1 0 1.162-1.627l-5-3.572a1068.771 1068.771 0 0 0-.232-.116.999.999 0 0 0-.336-.067L28 23.857l-.013.002a.999.999 0 0 0-.336.068 1068.771 1068.771 0 0 0-.232.116l-5 3.572a1 1 0 0 0 1.162 1.627L27 26.8v1.828l-4.2 3-1.546-1.104a.983.983 0 0 0 .56-.371 1 1 0 0 0-.233-1.395L17 25.485v-1.828l3.419 2.442a1 1 0 0 0 1.162-1.627L17 21.2v-1.828l3.419 2.442a1 1 0 1 0 1.162-1.628l-5-3.571a438.626 438.626 0 0 1-.232-.116.997.997 0 0 0-.336-.068L16 16.43l-.013.002a.998.998 0 0 0-.336.068.952.952 0 0 0-.108.054.965.965 0 0 0-.124.062l-5 3.571a1 1 0 0 0 1.162 1.628L15 19.372V21.2l-4.581 3.272a1 1 0 0 0 1.162 1.627L15 23.657v1.828l-4.581 3.273a1 1 0 0 0 1.162 1.627L15 27.943V33.2l-.581.415a1 1 0 0 0-.233 1.395.986.986 0 0 0 1.19.324.982.982 0 0 0 .624.237 1 1 0 0 0 1-1v-.342l2-1.429v1.828l-4.581 3.273a1 1 0 0 0 1.162 1.627L19 37.086v1.828l-4.581 3.272a1 1 0 0 0 1.162 1.628L19 41.372V48a1 1 0 0 0 2 0v-6.628l3.419 2.442a1 1 0 0 0 1.162-1.628L21 38.914v-1.828l3.419 2.442a1 1 0 0 0 1.162-1.627l-1.06-.758L27 35.372zM17 27.943l2.737 1.955c-.03.008-.057.019-.086.03a1068.771 1068.771 0 0 0-.232.115L17 31.771zm4 6.685V32.8l3.08 2.2-1.28.914zm4.756-.826a.965.965 0 0 0-.175-.187l-1.06-.758L27 31.087v1.827zM56.947 27.793A4.471 4.471 0 0 1 59.5 27h.684a1 1 0 0 0 0-2H59.5a6.463 6.463 0 0 0-3.69 1.148 1 1 0 1 0 1.137 1.646zM57.259 50h4.004a1 1 0 0 0 0-2h-4.004a1 1 0 0 0 0 2zM61.217 14a1 1 0 0 0 0-2h-4.004a1 1 0 0 0 0 2zM68.154 15.389a1 1 0 1 0 1.329-1.494 7.447 7.447 0 0 0-4.154-1.85 1 1 0 1 0-.22 1.988 5.459 5.459 0 0 1 3.045 1.356zM65.267 50h4.004a1 1 0 0 0 0-2h-4.004a1 1 0 0 0 0 2zM79.272 46.037a.999.999 0 0 0 1.287-.587 7.029 7.029 0 0 0 .11-4.582 1 1 0 0 0-1.905.608 5.027 5.027 0 0 1-.079 3.275 1 1 0 0 0 .587 1.286zM55.11 34.961a1 1 0 0 0 .413-1.352 4.523 4.523 0 0 1-.396-3.178 1 1 0 0 0-1.943-.473 6.523 6.523 0 0 0 .574 4.59 1 1 0 0 0 1.352.413zM77.92 37.2A6.966 6.966 0 0 0 74 36h-.438a1 1 0 0 0 0 2H74a4.972 4.972 0 0 1 2.798.856A1 1 0 0 0 77.92 37.2zM76.597 47.273A4.984 4.984 0 0 1 74 48h-.726a1 1 0 0 0 0 2H74a6.987 6.987 0 0 0 3.638-1.019 1 1 0 0 0-1.041-1.708zM61.55 36H59.5a4.474 4.474 0 0 1-1.565-.28 1 1 0 1 0-.696 1.876A6.48 6.48 0 0 0 59.5 38h2.05a1 1 0 0 0 0-2zM63.188 26a1 1 0 0 0 1 1h.312a7.479 7.479 0 0 0 4.034-1.176 1 1 0 1 0-1.076-1.686A5.482 5.482 0 0 1 64.5 25h-.312a1 1 0 0 0-1 1zM69.558 36h-4.004a1 1 0 0 0 0 2h4.004a1 1 0 0 0 0-2zM41.895 71.943a1 1 0 1 0-.255-1.984A5.028 5.028 0 0 1 41 70h-3.234a1 1 0 0 0 0 2H41a7.024 7.024 0 0 0 .895-.057zM23.09 77.404a1 1 0 0 0-1.96.4 6.492 6.492 0 0 0 2.482 3.905 1 1 0 1 0 1.197-1.602 4.497 4.497 0 0 1-1.718-2.703zM40.243 49a1 1 0 0 0 1 1h4.004a1 1 0 0 0 0-2h-4.004a1 1 0 0 0-1 1zM26.734 70.961a.999.999 0 0 0-1.262-.638 6.5 6.5 0 0 0-3.595 2.914 1 1 0 0 0 1.73 1.005 4.5 4.5 0 0 1 2.488-2.019 1 1 0 0 0 .639-1.262zM35.984 83h4.004a1 1 0 0 0 0-2h-4.004a1 1 0 0 0 0 2zM36 60h3.067a1 1 0 0 0 0-2H36a4.035 4.035 0 0 1-.746-.07 1 1 0 0 0-.372 1.966A6.015 6.015 0 0 0 36 60zM31.333 51.944a.998.998 0 0 0-1.192.761 6.011 6.011 0 0 0 .85 4.599A1 1 0 0 0 32.66 56.2a4.007 4.007 0 0 1-.566-3.064 1 1 0 0 0-.761-1.193zM33.9 50.595A3.99 3.99 0 0 1 36 50h1.239a1 1 0 0 0 0-2H36a5.99 5.99 0 0 0-3.152.894 1 1 0 0 0 1.052 1.7zM34.762 71a1 1 0 0 0-1-1h-4.004a1 1 0 1 0 0 2h4.004a1 1 0 0 0 1-1zM27.976 83h4.004a1 1 0 0 0 0-2h-4.004a1 1 0 1 0 0 2zM45.971 65.541a5.009 5.009 0 0 1-1.4 2.959 1 1 0 1 0 1.428 1.4 7.016 7.016 0 0 0 1.96-4.145 1 1 0 0 0-1.988-.214zM49.206 14h4.003a1 1 0 1 0 0-2h-4.003a1 1 0 0 0 0 2zM71.446 22.334a7.531 7.531 0 0 0 .36-4.531 1 1 0 0 0-1.948.45A5.55 5.55 0 0 1 70 19.5a5.473 5.473 0 0 1-.406 2.078 1 1 0 1 0 1.852.756zM54.254 49a1 1 0 0 0-1-1H49.25a1 1 0 0 0 0 2h4.004a1 1 0 0 0 1-1zM45.24 62.35a1 1 0 0 0 1.696-1.062 7.038 7.038 0 0 0-3.568-2.877 1 1 0 0 0-.676 1.882 5.031 5.031 0 0 1 2.549 2.057zM45 14a1 1 0 0 0 0-2h-2a1 1 0 0 0 0 2zM40 13a6 6 0 1 0-6 6 6 6 0 0 0 6-6zm-3.172 2.828A4 4 0 1 1 38 13a3.983 3.983 0 0 1-1.172 2.828zM49.707 78.793a1 1 0 0 0-1.414 0L46.5 80.586l-1.793-1.793a1 1 0 1 0-1.414 1.414L45.086 82l-1.793 1.793a1 1 0 0 0 1.414 1.414l1.793-1.793 1.793 1.793a1 1 0 0 0 1.414-1.414L47.914 82l1.793-1.793a1 1 0 0 0 0-1.414z"></path></g></g><!----></svg>