<svg data-v-423bf9ae="" xmlns="http://www.w3.org/2000/svg" viewBox="0 0 465.33754961174265 60" class="font"><!----><!----><!----><g data-v-423bf9ae="" id="e3b60cb3-2884-4411-90fc-4680977cb036" fill="black" transform="matrix(6.122448921203613,0,0,6.122448921203613,-4.805303573608398,-21.42856788635254)"><path d="M4.26 13.12C4.26 13.22 4.34 13.30 4.44 13.30C4.54 13.30 4.61 13.22 4.61 13.12L4.61 8.51L8.06 3.79C8.12 3.72 8.09 3.61 8.01 3.56C7.94 3.50 7.83 3.51 7.76 3.58L4.44 8.16L1.11 3.58C1.05 3.51 0.94 3.50 0.87 3.56C0.77 3.61 0.76 3.72 0.83 3.79L4.26 8.51L4.26 13.12ZM13.92 6.44C13.80 6.44 13.73 6.54 13.73 6.62L13.73 8.33C13.20 7.22 12.11 6.44 10.85 6.44C9.06 6.44 7.62 7.99 7.62 9.87C7.62 11.75 9.06 13.30 10.85 13.30C12.11 13.30 13.20 12.53 13.73 11.41L13.73 13.12C13.73 13.23 13.80 13.30 13.92 13.30C14.01 13.30 14.08 13.23 14.08 13.12L14.08 6.62C14.08 6.54 14.01 6.44 13.92 6.44ZM10.85 12.95C9.27 12.95 7.97 11.58 7.97 9.87C7.97 8.18 9.27 6.80 10.85 6.80C12.43 6.80 13.73 8.18 13.73 9.87C13.73 11.58 12.43 12.95 10.85 12.95ZM17.32 13.12L17.32 13.12C17.32 13.22 17.39 13.30 17.50 13.30L17.50 13.30C17.60 13.30 17.67 13.22 17.67 13.12L17.67 3.68L17.67 3.68C17.67 3.58 17.60 3.50 17.50 3.50L17.50 3.50C17.39 3.50 17.32 3.58 17.32 3.68L17.32 13.12ZM20.80 13.12L20.80 13.12C20.80 13.22 20.87 13.30 20.99 13.30L20.99 13.30C21.08 13.30 21.15 13.22 21.15 13.12L21.15 3.68L21.15 3.68C21.15 3.58 21.08 3.50 20.99 3.50L20.99 3.50C20.87 3.50 20.80 3.58 20.80 3.68L20.80 13.12ZM29.75 6.44C29.64 6.44 29.57 6.54 29.57 6.62L29.57 8.33C29.04 7.22 27.94 6.44 26.68 6.44C24.89 6.44 23.45 7.99 23.45 9.87C23.45 11.75 24.89 13.30 26.68 13.30C27.94 13.30 29.04 12.53 29.57 11.41L29.57 13.12C29.57 13.23 29.64 13.30 29.75 13.30C29.85 13.30 29.92 13.23 29.92 13.12L29.92 6.62C29.92 6.54 29.85 6.44 29.75 6.44ZM26.68 12.95C25.10 12.95 23.80 11.58 23.80 9.87C23.80 8.18 25.10 6.80 26.68 6.80C28.27 6.80 29.57 8.18 29.57 9.87C29.57 11.58 28.27 12.95 26.68 12.95ZM45.05 13.12C45.05 13.22 45.14 13.30 45.22 13.30C45.33 13.30 45.40 13.22 45.40 13.12L45.40 3.70C45.40 3.61 45.33 3.51 45.22 3.51C45.21 3.51 45.19 3.51 45.18 3.53C45.14 3.53 45.09 3.56 45.07 3.58L41.31 8.79L37.56 3.58C37.52 3.56 37.48 3.53 37.44 3.53C37.42 3.51 37.41 3.51 37.39 3.51C37.30 3.51 37.21 3.61 37.21 3.70L37.21 13.12C37.21 13.22 37.30 13.30 37.39 13.30C37.49 13.30 37.56 13.22 37.56 13.12L37.56 4.20L41.15 9.18C41.17 9.23 41.23 9.25 41.30 9.25L41.33 9.25C41.38 9.25 41.44 9.23 41.48 9.18L45.05 4.21L45.05 13.12ZM54.43 6.44C54.32 6.44 54.25 6.54 54.25 6.62L54.25 8.33C53.72 7.22 52.63 6.44 51.37 6.44C49.57 6.44 48.13 7.99 48.13 9.87C48.13 11.75 49.57 13.30 51.37 13.30C52.63 13.30 53.72 12.53 54.25 11.41L54.25 13.12C54.25 13.23 54.32 13.30 54.43 13.30C54.53 13.30 54.60 13.23 54.60 13.12L54.60 6.62C54.60 6.54 54.53 6.44 54.43 6.44ZM51.37 12.95C49.78 12.95 48.48 11.58 48.48 9.87C48.48 8.18 49.78 6.80 51.37 6.80C52.95 6.80 54.25 8.18 54.25 9.87C54.25 11.58 52.95 12.95 51.37 12.95ZM59.75 13.30C61.22 13.30 62.38 12.43 62.38 11.33C62.38 10.00 61.12 9.70 60.00 9.45C58.90 9.18 57.95 8.96 57.95 7.97C57.95 7.24 58.76 6.66 59.75 6.66C60.96 6.66 61.59 7.36 61.60 7.38C61.66 7.45 61.77 7.46 61.85 7.39C61.92 7.32 61.94 7.21 61.87 7.14C61.84 7.10 61.12 6.30 59.75 6.30C58.56 6.30 57.58 7.04 57.58 7.97C57.58 9.25 58.83 9.53 59.92 9.80C61.00 10.05 62.02 10.28 62.02 11.33C62.02 12.22 61.00 12.95 59.75 12.95C58.44 12.95 57.43 12.05 57.41 12.04C57.34 11.97 57.23 11.98 57.16 12.05C57.09 12.12 57.11 12.24 57.18 12.31C57.22 12.35 58.30 13.30 59.75 13.30ZM69.99 6.44C69.87 6.44 69.80 6.54 69.80 6.62L69.80 8.33C69.27 7.22 68.18 6.44 66.92 6.44C65.13 6.44 63.69 7.99 63.69 9.87C63.69 11.75 65.13 13.30 66.92 13.30C68.18 13.30 69.27 12.53 69.80 11.41L69.80 13.12C69.80 13.23 69.87 13.30 69.99 13.30C70.08 13.30 70.15 13.23 70.15 13.12L70.15 6.62C70.15 6.54 70.08 6.44 69.99 6.44ZM66.92 12.95C65.34 12.95 64.04 11.58 64.04 9.87C64.04 8.18 65.34 6.80 66.92 6.80C68.50 6.80 69.80 8.18 69.80 9.87C69.80 11.58 68.50 12.95 66.92 12.95ZM73.11 13.12C73.11 13.23 73.19 13.30 73.28 13.30C73.39 13.30 73.44 13.23 73.44 13.12L73.44 9.91C73.44 9.91 73.50 9.74 73.61 9.44C73.79 9.00 74.13 8.30 74.62 7.74C75.08 7.22 75.74 6.80 76.61 6.80C76.72 6.80 76.79 6.72 76.79 6.62C76.79 6.52 76.72 6.44 76.61 6.44C75.29 6.44 74.41 7.34 73.88 8.13C73.70 8.41 73.56 8.69 73.44 8.95L73.44 6.62C73.44 6.52 73.39 6.44 73.28 6.44C73.19 6.44 73.11 6.52 73.11 6.62L73.11 9.83C73.09 9.87 73.09 9.88 73.11 9.91L73.11 13.12Z"></path></g><!----><!----></svg>