<svg data-v-423bf9ae="" xmlns="http://www.w3.org/2000/svg" viewBox="0 0 579 90" class="iconLeft"><!----><!----><!----><g data-v-423bf9ae="" id="9ba68a9d-f9e9-4bcb-8c93-082d2d996d1e" fill="#0D3721" transform="matrix(6.2038397789001465,0,0,6.2038397789001465,111.07166290283203,12.279181480407715)"><path d="M6.71 1.50C5.98 3.07 5.29 4.21 4.37 5.53C3.44 4.21 2.76 3.07 2.04 1.50C1.76 0.92 0.03 0.92 0.31 1.50C1.26 3.49 2.20 5.17 3.54 6.86L3.54 9.63C3.54 10.19 5.18 10.19 5.18 9.63L5.18 6.87C6.54 5.18 7.48 3.50 8.43 1.50C8.69 0.92 6.96 0.92 6.71 1.50ZM15.18 8.48C15.06 8.53 14.97 8.54 14.87 8.54C14.60 8.54 14.46 8.33 14.46 7.76L14.46 6.03C14.46 4.05 13.37 3.37 11.66 3.37C10.25 3.37 9.42 3.65 8.83 4.14C8.37 4.51 8.47 5.56 8.95 5.26C9.52 4.93 10.29 4.69 11.16 4.69C12.33 4.69 12.82 5.08 12.82 6.24L12.82 6.31C12.39 6.09 11.75 5.95 10.85 5.95C9.35 5.95 8.39 6.76 8.39 8.01C8.39 9.25 9.30 10.05 10.70 10.05C11.77 10.05 12.53 9.66 12.99 9.24C13.22 9.81 13.64 10.02 14.13 10.02C14.46 10.02 14.83 9.93 15.18 9.79C15.78 9.53 15.78 8.26 15.18 8.48ZM11.14 8.75C10.33 8.75 10.04 8.37 10.04 7.97C10.04 7.55 10.36 7.15 11.23 7.15C12.04 7.15 12.57 7.29 12.82 7.48L12.82 8.04C12.57 8.34 12.01 8.75 11.14 8.75ZM19.52 8.48C19.25 8.57 19.03 8.62 18.86 8.62C18.48 8.62 18.33 8.36 18.33 7.76L18.33 0.71C18.33 0.04 16.69 0.74 16.69 1.41L16.69 8.15C16.69 9.56 17.37 10.05 18.24 10.05C18.65 10.05 19.08 9.94 19.52 9.79C20.12 9.52 20.10 8.26 19.52 8.48ZM24.19 8.48C23.93 8.57 23.70 8.62 23.53 8.62C23.16 8.62 23.00 8.36 23.00 7.76L23.00 0.71C23.00 0.04 21.36 0.74 21.36 1.41L21.36 8.15C21.36 9.56 22.05 10.05 22.92 10.05C23.32 10.05 23.76 9.94 24.19 9.79C24.79 9.52 24.78 8.26 24.19 8.48ZM32.30 8.48C32.19 8.53 32.09 8.54 31.99 8.54C31.72 8.54 31.58 8.33 31.58 7.76L31.58 6.03C31.58 4.05 30.49 3.37 28.78 3.37C27.37 3.37 26.54 3.65 25.96 4.14C25.49 4.51 25.59 5.56 26.07 5.26C26.64 4.93 27.41 4.69 28.28 4.69C29.46 4.69 29.95 5.08 29.95 6.24L29.95 6.31C29.51 6.09 28.87 5.95 27.97 5.95C26.47 5.95 25.51 6.76 25.51 8.01C25.51 9.25 26.42 10.05 27.82 10.05C28.90 10.05 29.65 9.66 30.11 9.24C30.34 9.81 30.76 10.02 31.25 10.02C31.58 10.02 31.95 9.93 32.30 9.79C32.90 9.53 32.90 8.26 32.30 8.48ZM28.27 8.75C27.45 8.75 27.16 8.37 27.16 7.97C27.16 7.55 27.48 7.15 28.35 7.15C29.16 7.15 29.69 7.29 29.95 7.48L29.95 8.04C29.69 8.34 29.13 8.75 28.27 8.75ZM46.72 8.57C46.59 8.62 46.48 8.64 46.40 8.64C46.12 8.64 45.99 8.44 45.99 8.05L45.99 7.50L45.99 1.44C45.99 0.88 44.49 0.94 44.37 1.26C43.67 2.86 42.78 4.44 41.59 5.96C40.38 4.44 39.54 2.86 38.82 1.26C38.70 0.94 37.20 0.88 37.20 1.44L37.20 9.63C37.20 10.19 38.84 10.19 38.84 9.63L38.84 4.54C39.72 6.12 40.73 7.57 41.26 7.94C41.45 8.05 41.73 8.05 41.92 7.94C42.46 7.57 43.47 6.10 44.35 4.52L44.35 7.27L44.35 8.29C44.35 9.66 44.93 10.11 45.67 10.11C45.99 10.11 46.37 10.01 46.72 9.87C47.32 9.60 47.29 8.29 46.72 8.57ZM54.61 8.48C54.50 8.53 54.40 8.54 54.31 8.54C54.04 8.54 53.90 8.33 53.90 7.76L53.90 6.03C53.90 4.05 52.81 3.37 51.10 3.37C49.69 3.37 48.86 3.65 48.27 4.14C47.81 4.51 47.91 5.56 48.38 5.26C48.96 4.93 49.73 4.69 50.60 4.69C51.77 4.69 52.26 5.08 52.26 6.24L52.26 6.31C51.83 6.09 51.18 5.95 50.29 5.95C48.79 5.95 47.82 6.76 47.82 8.01C47.82 9.25 48.73 10.05 50.13 10.05C51.21 10.05 51.97 9.66 52.43 9.24C52.65 9.81 53.07 10.02 53.56 10.02C53.90 10.02 54.26 9.93 54.61 9.79C55.22 9.53 55.22 8.26 54.61 8.48ZM50.58 8.75C49.77 8.75 49.48 8.37 49.48 7.97C49.48 7.55 49.80 7.15 50.67 7.15C51.48 7.15 52.01 7.29 52.26 7.48L52.26 8.04C52.01 8.34 51.45 8.75 50.58 8.75ZM57.53 5.29C57.53 4.84 58.20 4.58 59.07 4.58C59.78 4.58 60.62 4.76 61.36 5.15C61.78 5.39 61.74 4.07 61.33 3.88C60.65 3.54 59.79 3.37 58.95 3.37C57.37 3.37 55.89 3.98 55.89 5.33C55.89 6.80 57.43 7 58.65 7.20C59.46 7.32 60.13 7.43 60.13 7.92C60.13 8.46 59.42 8.75 58.51 8.75C57.78 8.75 56.94 8.57 56.21 8.18C55.76 7.97 55.83 9.35 56.22 9.55C56.91 9.87 57.81 10.05 58.67 10.05C60.26 10.05 61.77 9.42 61.77 7.95C61.77 6.34 60.21 6.16 58.98 5.98C58.18 5.87 57.53 5.75 57.53 5.29ZM69.58 8.48C69.47 8.53 69.37 8.54 69.27 8.54C69.01 8.54 68.87 8.33 68.87 7.76L68.87 6.03C68.87 4.05 67.77 3.37 66.07 3.37C64.65 3.37 63.83 3.65 63.24 4.14C62.78 4.51 62.87 5.56 63.35 5.26C63.92 4.93 64.69 4.69 65.56 4.69C66.74 4.69 67.23 5.08 67.23 6.24L67.23 6.31C66.79 6.09 66.15 5.95 65.25 5.95C63.76 5.95 62.79 6.76 62.79 8.01C62.79 9.25 63.70 10.05 65.10 10.05C66.18 10.05 66.93 9.66 67.40 9.24C67.62 9.81 68.04 10.02 68.53 10.02C68.87 10.02 69.23 9.93 69.58 9.79C70.18 9.53 70.18 8.26 69.58 8.48ZM65.55 8.75C64.74 8.75 64.44 8.37 64.44 7.97C64.44 7.55 64.76 7.15 65.63 7.15C66.44 7.15 66.98 7.29 67.23 7.48L67.23 8.04C66.98 8.34 66.42 8.75 65.55 8.75ZM75.07 3.43C73.98 3.46 73.16 3.88 72.63 4.54L72.42 3.68C72.32 3.29 70.99 3.28 70.99 3.81L70.99 9.63C70.99 10.19 72.65 10.19 72.65 9.63L72.65 5.94C73.29 5.25 73.95 5.04 74.76 5.00C75.25 4.98 75.59 3.42 75.07 3.43Z"></path></g><defs data-v-423bf9ae=""><linearGradient data-v-423bf9ae="" gradientTransform="rotate(25)" id="dafb94b2-f5d7-408c-b3e9-5c58ac3c5bcb" x1="0%" y1="0%" x2="100%" y2="0%"><stop data-v-423bf9ae="" offset="0%" style="stop-color: rgb(8, 91, 32); stop-opacity: 1;"></stop><stop data-v-423bf9ae="" offset="100%" style="stop-color: rgb(65, 226, 150); stop-opacity: 1;"></stop></linearGradient></defs><g data-v-423bf9ae="" id="5694577c-dd84-468a-a53b-a6934ea8f585" transform="matrix(1.0791436433792114,0,0,1.0791436433792114,-10.194107055664062,-7.554004192352295)" stroke="none" fill="url(#dafb94b2-f5d7-408c-b3e9-5c58ac3c5bcb)"><g data-name="Layer 2"><path d="M84.672 60.324a1 1 0 0 0-1.846-.039l-4.37 9.903-6.459-15.513a1 1 0 0 0-1.846 0L56.077 88.451a1 1 0 0 0 1.846.77l8.9-21.36 3.756 2.14a1 1 0 0 0 .991 0l3.75-2.143 1.98 4.755a.926.926 0 0 0 .053.077l-7.194 16.305a1 1 0 0 0 1.83.808l6.761-15.325 4.496 2.56a.999.999 0 0 0 .99 0l3.956-2.26 5.877 14.986a1 1 0 0 0 1.862-.73zm-13.599 7.658l-3.475-1.98 3.476-8.342 3.472 8.338zm12.667 7.037l-4.178-2.38 4.124-9.35 3.768 9.61zM27 42a1 1 0 0 0 2 0v-6.628l3.419 2.442a1 1 0 1 0 1.162-1.628L29 32.914v-1.828l3.419 2.442a1 1 0 0 0 1.162-1.627L29 28.628V26.8l3.419 2.442a1 1 0 1 0 1.162-1.627l-5-3.572a1068.771 1068.771 0 0 0-.232-.116.999.999 0 0 0-.336-.067L28 23.857l-.013.002a.999.999 0 0 0-.336.068 1068.771 1068.771 0 0 0-.232.116l-5 3.572a1 1 0 0 0 1.162 1.627L27 26.8v1.828l-4.2 3-1.546-1.104a.983.983 0 0 0 .56-.371 1 1 0 0 0-.233-1.395L17 25.485v-1.828l3.419 2.442a1 1 0 0 0 1.162-1.627L17 21.2v-1.828l3.419 2.442a1 1 0 1 0 1.162-1.628l-5-3.571a438.626 438.626 0 0 1-.232-.116.997.997 0 0 0-.336-.068L16 16.43l-.013.002a.998.998 0 0 0-.336.068.952.952 0 0 0-.108.054.965.965 0 0 0-.124.062l-5 3.571a1 1 0 0 0 1.162 1.628L15 19.372V21.2l-4.581 3.272a1 1 0 0 0 1.162 1.627L15 23.657v1.828l-4.581 3.273a1 1 0 0 0 1.162 1.627L15 27.943V33.2l-.581.415a1 1 0 0 0-.233 1.395.986.986 0 0 0 1.19.324.982.982 0 0 0 .624.237 1 1 0 0 0 1-1v-.342l2-1.429v1.828l-4.581 3.273a1 1 0 0 0 1.162 1.627L19 37.086v1.828l-4.581 3.272a1 1 0 0 0 1.162 1.628L19 41.372V48a1 1 0 0 0 2 0v-6.628l3.419 2.442a1 1 0 0 0 1.162-1.628L21 38.914v-1.828l3.419 2.442a1 1 0 0 0 1.162-1.627l-1.06-.758L27 35.372zM17 27.943l2.737 1.955c-.03.008-.057.019-.086.03a1068.771 1068.771 0 0 0-.232.115L17 31.771zm4 6.685V32.8l3.08 2.2-1.28.914zm4.756-.826a.965.965 0 0 0-.175-.187l-1.06-.758L27 31.087v1.827zM56.947 27.793A4.471 4.471 0 0 1 59.5 27h.684a1 1 0 0 0 0-2H59.5a6.463 6.463 0 0 0-3.69 1.148 1 1 0 1 0 1.137 1.646zM57.259 50h4.004a1 1 0 0 0 0-2h-4.004a1 1 0 0 0 0 2zM61.217 14a1 1 0 0 0 0-2h-4.004a1 1 0 0 0 0 2zM68.154 15.389a1 1 0 1 0 1.329-1.494 7.447 7.447 0 0 0-4.154-1.85 1 1 0 1 0-.22 1.988 5.459 5.459 0 0 1 3.045 1.356zM65.267 50h4.004a1 1 0 0 0 0-2h-4.004a1 1 0 0 0 0 2zM79.272 46.037a.999.999 0 0 0 1.287-.587 7.029 7.029 0 0 0 .11-4.582 1 1 0 0 0-1.905.608 5.027 5.027 0 0 1-.079 3.275 1 1 0 0 0 .587 1.286zM55.11 34.961a1 1 0 0 0 .413-1.352 4.523 4.523 0 0 1-.396-3.178 1 1 0 0 0-1.943-.473 6.523 6.523 0 0 0 .574 4.59 1 1 0 0 0 1.352.413zM77.92 37.2A6.966 6.966 0 0 0 74 36h-.438a1 1 0 0 0 0 2H74a4.972 4.972 0 0 1 2.798.856A1 1 0 0 0 77.92 37.2zM76.597 47.273A4.984 4.984 0 0 1 74 48h-.726a1 1 0 0 0 0 2H74a6.987 6.987 0 0 0 3.638-1.019 1 1 0 0 0-1.041-1.708zM61.55 36H59.5a4.474 4.474 0 0 1-1.565-.28 1 1 0 1 0-.696 1.876A6.48 6.48 0 0 0 59.5 38h2.05a1 1 0 0 0 0-2zM63.188 26a1 1 0 0 0 1 1h.312a7.479 7.479 0 0 0 4.034-1.176 1 1 0 1 0-1.076-1.686A5.482 5.482 0 0 1 64.5 25h-.312a1 1 0 0 0-1 1zM69.558 36h-4.004a1 1 0 0 0 0 2h4.004a1 1 0 0 0 0-2zM41.895 71.943a1 1 0 1 0-.255-1.984A5.028 5.028 0 0 1 41 70h-3.234a1 1 0 0 0 0 2H41a7.024 7.024 0 0 0 .895-.057zM23.09 77.404a1 1 0 0 0-1.96.4 6.492 6.492 0 0 0 2.482 3.905 1 1 0 1 0 1.197-1.602 4.497 4.497 0 0 1-1.718-2.703zM40.243 49a1 1 0 0 0 1 1h4.004a1 1 0 0 0 0-2h-4.004a1 1 0 0 0-1 1zM26.734 70.961a.999.999 0 0 0-1.262-.638 6.5 6.5 0 0 0-3.595 2.914 1 1 0 0 0 1.73 1.005 4.5 4.5 0 0 1 2.488-2.019 1 1 0 0 0 .639-1.262zM35.984 83h4.004a1 1 0 0 0 0-2h-4.004a1 1 0 0 0 0 2zM36 60h3.067a1 1 0 0 0 0-2H36a4.035 4.035 0 0 1-.746-.07 1 1 0 0 0-.372 1.966A6.015 6.015 0 0 0 36 60zM31.333 51.944a.998.998 0 0 0-1.192.761 6.011 6.011 0 0 0 .85 4.599A1 1 0 0 0 32.66 56.2a4.007 4.007 0 0 1-.566-3.064 1 1 0 0 0-.761-1.193zM33.9 50.595A3.99 3.99 0 0 1 36 50h1.239a1 1 0 0 0 0-2H36a5.99 5.99 0 0 0-3.152.894 1 1 0 0 0 1.052 1.7zM34.762 71a1 1 0 0 0-1-1h-4.004a1 1 0 1 0 0 2h4.004a1 1 0 0 0 1-1zM27.976 83h4.004a1 1 0 0 0 0-2h-4.004a1 1 0 1 0 0 2zM45.971 65.541a5.009 5.009 0 0 1-1.4 2.959 1 1 0 1 0 1.428 1.4 7.016 7.016 0 0 0 1.96-4.145 1 1 0 0 0-1.988-.214zM49.206 14h4.003a1 1 0 1 0 0-2h-4.003a1 1 0 0 0 0 2zM71.446 22.334a7.531 7.531 0 0 0 .36-4.531 1 1 0 0 0-1.948.45A5.55 5.55 0 0 1 70 19.5a5.473 5.473 0 0 1-.406 2.078 1 1 0 1 0 1.852.756zM54.254 49a1 1 0 0 0-1-1H49.25a1 1 0 0 0 0 2h4.004a1 1 0 0 0 1-1zM45.24 62.35a1 1 0 0 0 1.696-1.062 7.038 7.038 0 0 0-3.568-2.877 1 1 0 0 0-.676 1.882 5.031 5.031 0 0 1 2.549 2.057zM45 14a1 1 0 0 0 0-2h-2a1 1 0 0 0 0 2zM40 13a6 6 0 1 0-6 6 6 6 0 0 0 6-6zm-3.172 2.828A4 4 0 1 1 38 13a3.983 3.983 0 0 1-1.172 2.828zM49.707 78.793a1 1 0 0 0-1.414 0L46.5 80.586l-1.793-1.793a1 1 0 1 0-1.414 1.414L45.086 82l-1.793 1.793a1 1 0 0 0 1.414 1.414l1.793-1.793 1.793 1.793a1 1 0 0 0 1.414-1.414L47.914 82l1.793-1.793a1 1 0 0 0 0-1.414z"></path></g></g><!----></svg>