<?xml version="1.0" encoding="utf-8"?>
<!-- Generator: Adobe Illustrator 23.0.3, SVG Export Plug-In . SVG Version: 6.00 Build 0)  -->
<svg version="1.1" xmlns="http://www.w3.org/2000/svg" xmlns:xlink="http://www.w3.org/1999/xlink" x="0px" y="0px"
	 viewBox="0 0 154.6 218.6" style="enable-background:new 0 0 154.6 218.6;" xml:space="preserve">
<style type="text/css">
	.st0{fill:url(#SVGID_1_);}
	.st1{clip-path:url(#SVGID_3_);}
	.st2{fill:url(#SVGID_4_);}
	.st3{fill:url(#SVGID_5_);}
	.st4{fill:#FFFFFF;}
	.st5{fill:url(#SVGID_6_);}
	.st6{clip-path:url(#SVGID_3_);fill:url(#SVGID_7_);}
	.st7{fill:url(#SVGID_8_);}
	.st8{fill:url(#SVGID_9_);}
	.st9{opacity:0.3;fill:#95A590;}
	.st10{fill:#374244;}
	.st11{fill:#456968;}
	.st12{fill:url(#SVGID_10_);}
	.st13{fill:#6E9765;}
	.st14{fill:url(#SVGID_11_);}
	.st15{fill:url(#SVGID_12_);}
	.st16{clip-path:url(#SVGID_3_);fill:url(#SVGID_13_);}
	.st17{clip-path:url(#SVGID_3_);fill:#6E9765;}
	.st18{clip-path:url(#SVGID_3_);fill:url(#SVGID_14_);}
	.st19{clip-path:url(#SVGID_3_);fill:#374244;}
	.st20{fill:#8E324D;}
	.st21{fill:url(#SVGID_15_);}
	.st22{fill:#F1813A;}
	.st23{fill:#E56E29;}
	.st24{fill:#D5381C;}
	.st25{fill:#C51620;}
	.st26{fill:#74202C;}
	.st27{fill:#41282E;}
	.st28{opacity:0.6;fill:#B4DCE3;}
	.st29{opacity:0.8;fill:#FFFFFF;}
	.st30{opacity:0.4;fill:#FFFFFF;}
	.st31{fill:#C25245;}
	.st32{display:none;fill:url(#SVGID_16_);}
	.st33{opacity:0.3;fill:#8E324D;}
	.st34{opacity:0.2;fill:#8E324D;}
	.st35{opacity:0.5;fill:#8E324D;}
	.st36{fill:#D87870;}
	.st37{opacity:0.3;fill:#D87870;}
	.st38{fill:#A6483E;}
	.st39{opacity:0.2;fill:#FFFFFF;}
	.st40{fill:#638886;}
	.st41{opacity:0.38;fill:#733A43;}
	.st42{fill:#87A4A3;}
	.st43{fill:#733A43;}
	.st44{display:none;opacity:0.5;clip-path:url(#SVGID_3_);}
	.st45{display:inline;}
	.st46{display:inline;fill:#050500;}
	.st47{display:inline;fill:#0A0A00;}
	.st48{display:inline;fill:#0F0F00;}
	.st49{display:inline;fill:#141400;}
	.st50{display:inline;fill:#191900;}
	.st51{display:inline;fill:#1E1E00;}
	.st52{display:inline;fill:#232300;}
	.st53{display:inline;fill:#282800;}
	.st54{display:inline;fill:#2D2D00;}
	.st55{display:inline;fill:#323200;}
	.st56{display:inline;fill:#373700;}
	.st57{display:inline;fill:#3C3C00;}
	.st58{display:inline;fill:#414100;}
	.st59{display:inline;fill:#464600;}
	.st60{display:inline;fill:#4B4B00;}
	.st61{display:inline;fill:#505000;}
	.st62{display:inline;fill:#555500;}
	.st63{display:inline;fill:#5A5A00;}
	.st64{display:inline;fill:#5F5F00;}
	.st65{display:inline;fill:#646400;}
	.st66{display:inline;fill:#696900;}
	.st67{display:inline;fill:#6E6E00;}
	.st68{display:inline;fill:#737300;}
	.st69{display:inline;fill:#787800;}
	.st70{display:inline;fill:#7D7D00;}
	.st71{display:inline;fill:#828200;}
	.st72{display:inline;fill:#878700;}
	.st73{display:inline;fill:#8C8C00;}
	.st74{display:inline;fill:#919100;}
	.st75{display:inline;fill:#969600;}
	.st76{display:inline;fill:#9B9B00;}
	.st77{display:inline;fill:#A0A000;}
	.st78{display:inline;fill:#A5A500;}
	.st79{display:inline;fill:#AAAA00;}
	.st80{display:inline;fill:#AFAF00;}
	.st81{display:inline;fill:#B4B400;}
	.st82{display:inline;fill:#B9B900;}
	.st83{display:inline;fill:#BEBE00;}
	.st84{display:inline;fill:#C3C300;}
	.st85{display:inline;fill:#C8C800;}
	.st86{display:inline;fill:#CDCD00;}
	.st87{display:inline;fill:#D2D200;}
	.st88{display:inline;fill:#D7D700;}
	.st89{display:inline;fill:#DCDC00;}
	.st90{display:inline;fill:#E1E100;}
	.st91{display:inline;fill:#E6E600;}
	.st92{display:inline;fill:#EBEB00;}
	.st93{display:inline;fill:#F0F000;}
	.st94{display:inline;fill:#F5F500;}
	.st95{display:inline;fill:#FAFA00;}
	.st96{display:inline;fill:#FFFF00;}
</style>
<g id="Layer_2">
</g>
<g id="Layer_1">
	<g>
		<linearGradient id="SVGID_1_" gradientUnits="userSpaceOnUse" x1="77.2889" y1="218.6162" x2="77.2889" y2="-9.094947e-13">
			<stop  offset="0" style="stop-color:#D3E9ED"/>
			<stop  offset="0.2578" style="stop-color:#D0E7EC"/>
			<stop  offset="0.4714" style="stop-color:#C5E2EA"/>
			<stop  offset="0.6692" style="stop-color:#B4D9E7"/>
			<stop  offset="0.8564" style="stop-color:#9CCCE2"/>
			<stop  offset="1" style="stop-color:#84C0DD"/>
		</linearGradient>
		<rect class="st0" width="154.6" height="218.6"/>
		<g>
			<defs>
				<rect id="SVGID_2_" width="154.6" height="218.6"/>
			</defs>
			<clipPath id="SVGID_3_">
				<use xlink:href="#SVGID_2_"  style="overflow:visible;"/>
			</clipPath>
			<g class="st1">
				
					<linearGradient id="SVGID_4_" gradientUnits="userSpaceOnUse" x1="-63.977" y1="80.7641" x2="-63.977" y2="53.1068" gradientTransform="matrix(-0.9994 -3.350000e-02 -3.350000e-02 0.9994 -2.9163 9.5995)">
					<stop  offset="0" style="stop-color:#C7EFFF"/>
					<stop  offset="1" style="stop-color:#F8FEFF"/>
				</linearGradient>
				<path class="st2" d="M124.3,85.4c1.6-0.8,2.1-2.8,1.1-4.4c-0.5-0.7-1.3-1.3-2.2-1.4c-1.9-0.4-3.6,0.8-3.9,2.5
					c0.1-0.4-0.1-0.8-0.4-1c-0.3-0.2-0.8-0.3-1.1-0.2c-0.5-1.4-1.7-2.4-3.2-2.8c-1.5-0.4-3.1,0-4.2,1c0-0.4-0.2-0.7-0.5-1
					c-0.3-0.2-0.7-0.3-1.1-0.3c0.6-0.3,1.1-0.8,1.3-1.4c0.2-0.6,0.1-1.3-0.2-1.9c0.4-0.8,0.2-1.8-0.6-2.5s-1.8-0.7-2.6-0.2
					c0.3-0.4,0.3-1,0.1-1.4c-0.3-0.5-0.8-0.7-1.4-0.7c-0.5,0.1-1,0.4-1.1,0.9c-0.3-0.4-0.9-0.6-1.4-0.4c-0.5,0.2-0.8,0.7-0.7,1.2
					c-0.1-0.2-0.2-0.3-0.4-0.4c-0.2-0.1-0.4-0.1-0.6,0c0.6-2.2-0.1-4.5-1.9-6c0.2-0.5,0-1.1-0.4-1.6c-0.4-0.4-1-0.6-1.6-0.5
					c-0.6,0.1-1,0.5-1.2,1.1c-0.2-0.4-0.6-0.8-1.1-0.9c-0.5-0.1-1-0.1-1.5,0.2c-1.4-1.6-3.6-2.1-5.5-1.3c-1.9,0.8-2.9,2.8-2.5,4.8
					c-0.6-0.5-1.5-0.5-2.1,0c-0.6-1.1-1.8-1.8-3.1-1.6c-0.2-1.2-1.2-2.1-2.4-2.4c-1.2-0.2-2.5,0.3-3.1,1.3c-1.5,0-2.8,0.8-3.5,2.1
					s-0.5,2.8,0.4,4c-0.3-0.2-0.7-0.2-1,0c-0.3,0.2-0.5,0.4-0.5,0.8c-0.8-1.4-2.3-2.3-4-2.4c0.5-0.9,0.4-2.1-0.4-2.9
					c-0.7-0.8-1.9-1.1-2.9-0.7c-0.3-0.6-0.9-1-1.5-1c-0.7,0-1.3,0.4-1.5,1c-1.8-1.3-4.1-1.5-6.1-0.6c-1.9,0.9-3.2,2.8-3.1,4.9
					c-1.8-1.3-4.2-1.4-6.2-0.5c-2,1-3.2,2.9-3.1,5.1c-0.4-1.1-1.3-1.9-2.4-2.4c-1.1-0.5-2.4-0.5-3.5,0c0-0.3-0.1-0.7-0.4-0.9
					c-0.3-0.2-0.7-0.2-1-0.1c0.4-0.7,0.1-1.6-0.7-2c-0.7-0.4-1.7-0.1-2.1,0.6c0-0.6-0.4-1.1-1-1.3c-0.6-0.2-1.2-0.1-1.6,0.4
					c-0.4,0.4-0.5,1-0.2,1.6c-1.2-1.8-3.6-2.5-5.7-1.6c-0.8-1.9-2.8-3.1-5-2.9c-2.1,0.2-3.8,1.7-4.2,3.6c-0.7-0.6-1.7-0.6-2.4-0.1
					c-0.7,0.6-0.8,1.5-0.3,2.2c-0.8-0.8-2.1-0.8-2.9,0c-0.3-0.4-0.7-0.6-1.1-0.6c-0.5,0-0.9,0.3-1.1,0.7c-0.2,0.4-0.2,0.8,0.1,1.2
					c-1.9-2.1-4.9-2.8-7.5-1.9c-2.6,1-4.3,3.4-4.1,6.1c-0.2-0.1-0.5-0.1-0.7,0c-0.2,0.2-0.3,0.4-0.2,0.7c0.1,0.2,0.3,0.4,0.6,0.4
					c-2,0.8-3.1,2.8-2.8,4.9c0.3,2.1,2,3.7,4.2,4.1c-0.4,0.2-0.7,0.5-0.7,1c0,0.4,0.3,0.8,0.7,1c0.3,0.6,0.6,1.1,1.1,1.5
					c0.9,0.9,2.3,1.4,3.6,1.4c40,0.6,79.9,0,119.8-1.9c2.2-0.1,4.2-1.6,4.5-3.7c0-0.1,0-0.2,0-0.3C124.5,85.5,124.4,85.5,124.3,85.4
					z"/>
				
					<linearGradient id="SVGID_5_" gradientUnits="userSpaceOnUse" x1="-136.2688" y1="74.4436" x2="-136.2688" y2="44.4696" gradientTransform="matrix(-0.9994 -3.350000e-02 -3.350000e-02 0.9994 -2.9163 9.5995)">
					<stop  offset="0" style="stop-color:#C7EFFF"/>
					<stop  offset="1" style="stop-color:#F8FEFF"/>
				</linearGradient>
				<path class="st3" d="M93.5,81.4c-0.2,0-0.3,0-0.4-0.1c-0.1-0.1-0.1-0.3,0-0.4c0.1-0.1,0.3-0.2,0.4-0.1c-0.6-1.5-0.2-3.3,1.1-4.3
					c1.3-1,3.2-1.1,4.7-0.3C99.1,76,99,75.7,99,75.5c0-0.3,0.2-0.5,0.5-0.6c0.3-0.1,0.6,0,0.8,0.1c0.3-0.6,1-0.8,1.7-0.5
					c-0.4-0.3-0.6-0.9-0.3-1.4c0.3-0.4,0.9-0.6,1.4-0.4c-0.2-1.2,0.5-2.4,1.7-2.9c1.2-0.5,2.6-0.2,3.4,0.8c1-0.9,2.5-0.9,3.6-0.1
					c-0.3-0.3-0.3-0.6-0.2-1c0.2-0.3,0.5-0.5,0.9-0.5c0.4,0,0.7,0.2,0.8,0.6c0.1-0.5,0.6-0.8,1.1-0.7c0.5,0.1,0.8,0.5,0.8,1
					c0.2-0.1,0.4-0.2,0.6-0.1c0.2,0.1,0.4,0.2,0.4,0.4c0.5-0.4,1.3-0.7,2-0.6c0.7,0.1,1.4,0.4,1.9,1c-0.4-1.2-0.1-2.6,0.8-3.5
					c0.9-0.9,2.4-1.2,3.7-0.8c-0.4-1.2-0.1-2.5,0.9-3.4c0.9-0.9,2.3-1.2,3.6-0.7c0-0.4,0.3-0.7,0.7-0.9c0.4-0.1,0.8,0,1.1,0.3
					c0.5-0.4,1.3-0.4,1.8-0.1c0.6,0.3,0.9,1,0.8,1.6c1-0.2,2,0,2.7,0.7c-0.1-0.2,0-0.4,0.1-0.5c0.1-0.1,0.4-0.2,0.6-0.2
					c-0.7-0.5-1.1-1.4-1-2.2c0.1-0.9,0.8-1.6,1.6-1.8c0.2-0.7,0.8-1.2,1.5-1.3c0.8-0.1,1.5,0.3,1.8,1c0.7-0.3,1.5-0.1,2.1,0.4
					c0.3-0.4,0.7-0.5,1.2-0.3c-0.6-1.1-0.4-2.4,0.6-3.2c0.9-0.8,2.3-0.9,3.4-0.2c0.2-0.2,0.5-0.4,0.8-0.4c0.3,0,0.6,0.1,0.8,0.4
					c0-0.3,0.2-0.7,0.5-0.8c0.3-0.2,0.7-0.2,1,0c0.3,0.2,0.5,0.5,0.5,0.9c1.3,0.6,2.2,1.8,2.2,3.2c0.1-0.1,0.2-0.1,0.3-0.1
					c0.1,0,0.2,0.1,0.3,0.2c-0.2-0.3-0.1-0.6,0.2-0.8c0.3-0.2,0.6-0.2,0.9,0c0-0.3,0.2-0.6,0.5-0.7c0.3-0.1,0.7-0.1,0.9,0.2
					c0.2,0.2,0.3,0.6,0.2,0.9c0.4-0.4,1-0.6,1.5-0.3c0.5,0.2,0.9,0.8,0.8,1.3c0.3,0.3,0.5,0.7,0.5,1.1c0,0.4-0.2,0.8-0.5,1.1
					c0.2-0.1,0.5-0.1,0.7,0c0.2,0.1,0.4,0.3,0.4,0.5c0.4-0.8,1.3-1.2,2.2-1.3c0.9,0,1.8,0.4,2.4,1.1c0.2-0.1,0.4-0.2,0.7-0.1
					c0.2,0.1,0.4,0.5,0.4,0.5c0,0,0.6-2,1.8-2.1c0.5,0,1.1,0.1,1.5,0.5c0.9,0.8,0.9,2,0.2,2.7c0.1,0,0.2,0,0.3,0c0,0.1,0,0.1,0,0.2
					c0.1,1.1-0.4,2.1-1.4,2.7c0.4,0.7,0.2,1.6-0.3,2.2c0.1,0,0.2,0,0.3,0.1c0.1,0.1,0.1,0.2,0,0.3c-0.1,0.1-0.2,0.1-0.3,0.1
					c0.5,1,0.3,2.3-0.6,3.1c-0.9,0.8-2.2,0.9-3.3,0.4c0.2,0.1,0.3,0.3,0.2,0.5c0,0.2-0.1,0.3-0.3,0.4c-0.2,0.1-0.4,0.1-0.5-0.1
					c-0.2,0.4-0.7,0.6-1.1,0.4c0.3,0.2,0.4,0.6,0.3,0.9c-0.2,0.3-0.6,0.5-1,0.3c0.2,0.9-0.3,1.7-1.1,2.1c-0.8,0.4-1.8,0.2-2.4-0.4
					c-0.7,0.6-1.7,0.7-2.5,0.2c0.2,0.2,0.2,0.4,0.2,0.7c-0.1,0.2-0.3,0.4-0.6,0.4c-0.3,0-0.5-0.1-0.6-0.4c0,0.3-0.4,0.6-0.7,0.5
					c-0.4,0-0.6-0.4-0.6-0.7c-0.1,0.1-0.3,0.1-0.4,0.1c-0.1,0-0.3-0.2-0.3-0.3c-0.4,0.3-0.9,0.5-1.4,0.5c-0.5,0-1-0.3-1.3-0.6
					c0.3,0.9,0.2,1.8-0.5,2.5c-0.6,0.7-1.6,0.9-2.6,0.7c0.3,0.8,0.1,1.8-0.5,2.4c-0.7,0.6-1.6,0.9-2.6,0.6c0,0.3-0.2,0.5-0.5,0.6
					c-0.3,0.1-0.6,0-0.8-0.2c-0.4,0.3-0.9,0.3-1.3,0.1c-0.4-0.2-0.6-0.7-0.6-1.1c-0.7,0.2-1.4,0-1.9-0.5c0,0.1,0,0.3-0.1,0.4
					c-0.1,0.1-0.2,0.1-0.4,0.1c0.5,0.4,0.8,1,0.7,1.6c-0.1,0.6-0.5,1.1-1.1,1.3c-0.1,0.5-0.5,0.9-1.1,0.9c-0.5,0.1-1.1-0.2-1.3-0.7
					c-0.5,0.2-1.1,0.1-1.5-0.3c-0.2,0.3-0.5,0.4-0.8,0.2c0.4,0.8,0.3,1.7-0.4,2.3c-0.7,0.6-1.7,0.6-2.4,0.2
					c-0.1,0.2-0.4,0.2-0.6,0.3c-0.2,0-0.4-0.1-0.6-0.2c0,0.2-0.1,0.5-0.3,0.6c-0.2,0.1-0.5,0.1-0.7,0c-0.2-0.1-0.4-0.4-0.4-0.6
					c-0.9-0.4-1.5-1.3-1.6-2.3c-0.1,0-0.2,0.1-0.2,0.1s-0.2-0.1-0.2-0.1c0.1,0.2,0.1,0.4-0.1,0.6c-0.2,0.1-0.4,0.1-0.6,0
					c0,0.2-0.1,0.4-0.3,0.5c-0.2,0.1-0.5,0-0.6-0.1c-0.2-0.2-0.2-0.4-0.2-0.6c-0.3,0.3-0.7,0.4-1.1,0.2c-0.4-0.2-0.6-0.6-0.6-0.9
					c-0.2-0.2-0.3-0.5-0.3-0.8c0-0.3,0.1-0.6,0.4-0.7c-0.1,0.1-0.3,0.1-0.5,0c-0.2-0.1-0.3-0.2-0.3-0.4c-0.3,0.5-0.9,0.9-1.6,0.9
					c-0.7,0-1.3-0.3-1.7-0.8c-0.1,0.1-0.3,0.1-0.5,0.1c-0.2-0.1-0.3-0.4-0.3-0.4s-0.5,1.4-1.3,1.5c-0.4,0-0.8-0.1-1.1-0.4
					c-0.1-0.1-0.3-0.3-0.3-0.4c-5,1.5-9.9,3-14.9,4.5c-0.8,0.2-1.6,0.2-2.3-0.2c-0.3-0.2-0.7-0.4-0.9-0.7c-0.3,0-0.5-0.2-0.6-0.4
					c-0.1-0.2,0-0.5,0.2-0.7c-1.3,0.2-2.6-0.5-3.2-1.6C92.3,83.6,92.6,82.3,93.5,81.4z"/>
				<path class="st4" d="M220.2,64.5c1.8,11.4,3.6,22.7,5.4,34.1c-92.5,10.3-185.8,13.3-279.1,8.7c0.2-5.2,0.3-10.5,0.5-15.7
					c1.9-0.4,3.9,0.2,5.4,1.4c-0.1-0.5,0.2-1,0.6-1.3c0.4-0.3,0.9-0.5,1.5-0.4c-0.9-0.4-1.6-1.1-1.9-2c-0.3-0.9-0.3-1.8,0.2-2.6
					c-0.4-0.8-0.4-1.7-0.1-2.4c0.2-0.3,0.4-0.6,0.7-0.9c0.1-0.1,0.2-0.2,0.4-0.3c0.9-0.5,2.2-0.6,3.2,0.1c-0.5-0.6-0.5-1.3-0.2-1.9
					c0.4-0.6,1.1-1,1.8-0.9c0.7,0.1,1.4,0.6,1.6,1.3c0.4-0.6,1.2-0.8,1.9-0.5c0.7,0.3,1.1,1,1,1.7c0.1-0.2,0.3-0.5,0.5-0.6
					c0.2-0.1,0.5-0.1,0.8,0c-1-2.9-0.2-6.1,2.1-8.1c-0.3-0.7-0.1-1.5,0.4-2.1c0.1-0.2,0.3-0.3,0.5-0.4c0.5-0.3,1.1-0.4,1.6-0.3
					c0,0,0,0,0,0c0.8,0.2,1.4,0.7,1.7,1.5c0.2-0.4,0.5-0.8,0.9-1c0.2-0.1,0.3-0.2,0.5-0.2c0.7-0.2,1.4-0.1,2,0.3
					c1.7-2.1,4.7-2.8,7.4-1.7c1.6,0.7,2.7,1.9,3.3,3.3c0.4,1,0.6,2,0.4,3.1c0.8-0.6,1.9-0.6,2.8,0c0.4-0.9,1.2-1.6,2.2-2
					c0.6-0.2,1.2-0.3,1.8-0.2c0.2-1.6,1.4-2.9,3.1-3.2c1.6-0.3,3.4,0.4,4.3,1.8c2,0,3.9,1.1,4.9,2.8c0.1,0.1,0.1,0.2,0.2,0.4
					c0.8,1.6,0.6,3.5-0.4,5c0.4-0.2,0.9-0.2,1.3,0c0.4,0.2,0.7,0.6,0.7,1c1-1.8,3-3,5.2-3.2c-0.6-1-0.7-2.2-0.2-3.2
					c0.1-0.2,0.2-0.4,0.4-0.6c0.9-1.1,2.5-1.5,3.9-1c0.3-0.8,1.1-1.4,2-1.4c0.9,0,1.7,0.5,2.1,1.4c2.3-1.7,5.5-2.1,8.2-0.8
					c2.7,1.2,4.5,3.8,4.7,6.6c2.4-1.7,5.6-2,8.4-0.7c2.4,1.1,4.1,3.2,4.6,5.7c0.1,0.3,0.1,0.7,0.1,1.1c0.1-0.3,0.3-0.6,0.4-0.9
					c0.5-0.8,1.2-1.5,2.1-2c0.2-0.1,0.4-0.2,0.6-0.3c1.5-0.6,3.2-0.7,4.7-0.1c-0.1-0.5,0.1-0.9,0.5-1.2c0.4-0.3,0.9-0.3,1.3-0.2
					c-0.2-0.4-0.3-0.8-0.3-1.2c0.1-0.6,0.4-1.1,1-1.4c1-0.5,2.2-0.2,2.8,0.7c0-0.8,0.5-1.5,1.3-1.8c0.8-0.3,1.6-0.1,2.2,0.5
					c0.5,0.5,0.8,1.3,0.5,2c0,0.1,0,0.1-0.1,0.2c0-0.1,0.1-0.1,0.1-0.2c0.7-1.1,1.8-1.9,3-2.3c1.4-0.5,3-0.5,4.4,0.1
					c0.2-0.6,0.5-1.1,0.9-1.6c1.3-1.6,3.3-2.6,5.6-2.4c2.9,0.2,5.3,2.1,6,4.8c0.9-0.8,2.2-0.9,3.2-0.2c1,0.7,1.3,2,0.6,3
					c1-1,2.7-1.1,3.9-0.1c0.3-0.5,0.9-0.8,1.5-0.8c0.6,0,1.2,0.3,1.5,0.9c0.2,0.4,0.3,0.8,0.2,1.2c0,0.1-0.1,0.3-0.2,0.4
					c0.1-0.2,0.3-0.3,0.4-0.4c2.4-2.5,6.1-3.4,9.6-2.3c0.9,0.3,1.7,0.7,2.4,1.2c1.5,0.7,2.6,2,3,3.5c0.1,0.3,0.3,0.6,0.4,0.9
					c1.7-1.3,4-1.5,6.1-0.7c2.1,0.8,3.6,2.7,3.8,4.9c0.3-1.1,1.1-2,2.2-2.5c0.3-0.2,0.7-0.3,1-0.3c0.5-0.1,1.1-0.1,1.7-0.1
					c0.2,0,0.4,0.1,0.6,0.1c0.1,0,0.1,0,0.2,0.1c0-0.2,0-0.4,0.1-0.6c0,0,0,0,0,0c0-0.1,0.1-0.2,0.2-0.2c0.1-0.1,0.3-0.2,0.4-0.2
					c0,0,0,0,0,0c0.2,0,0.4,0,0.6,0c0,0-0.1-0.1-0.1-0.1c-0.4-0.7-0.1-1.5,0.5-1.9c0.7-0.4,1.7-0.2,2.1,0.4c0-0.6,0.3-1.1,0.9-1.3
					c0.6-0.2,1.2-0.1,1.7,0.3c0.5,0.4,0.6,1,0.4,1.6c0.9-1.7,3-2.5,4.9-2.1c0.2,0,0.4,0.1,0.6,0.2c0-0.1,0.1-0.2,0.1-0.3
					c0.7-1.7,2.5-2.9,4.6-2.9c0.1,0,0.1,0,0.2,0c1,0.1,1.9,0.4,2.6,0.9c0.1-2.1,0.9-4.2,2.2-5.8c0.9-1.1,2.1-1.9,3.4-2.6
					c3.4-1.7,8.8-1,11.7,1.4c0.2,0.1,0.3,0.3,0.5,0.4c-0.1-0.1-0.1-0.2-0.2-0.3c-0.3-0.5-0.4-1.1-0.2-1.6c0.2-0.6,0.8-1.1,1.6-1.2
					c0.7-0.1,1.4,0.2,1.9,0.7c0.4-0.5,1-0.8,1.7-1c1-0.2,2,0,2.9,0.6c-0.5-0.6-0.7-1.3-0.7-2c0-0.6,0.3-1.2,0.8-1.6
					c0.6-0.6,1.4-0.9,2.3-0.8c0.5,0,1,0.2,1.5,0.5c0.1-1.2,0.5-2.2,1.1-3.2c1.1-1.7,2.8-2.9,4.9-3.3c3.3-0.6,6.7,0.9,8.4,3.8
					c2.7-1.5,6.2-1.1,8.5,0.9c0.3,0.2,0.5,0.5,0.8,0.8c-0.2-0.3-0.3-0.6-0.4-1c-0.1-0.5,0.1-1.1,0.4-1.6c0.6-0.7,1.5-1.1,2.5-0.9
					c0.9,0.2,1.7,1,1.9,1.9c0.5-1.2,1.9-1.7,3.1-1.2c1.3,0.5,1.9,1.8,1.5,3c0.5-0.3,1.1-0.3,1.6,0c0.5,0.3,0.8,0.8,0.9,1.3
					c1.7-0.9,3.7-1.1,5.5-0.5c1.5,0.4,2.9,1.3,3.8,2.5c0.2,0.3,0.4,0.5,0.6,0.8c-0.1-0.8-0.1-1.6,0-2.4c0,0,0,0,0,0
					C218.8,67,219.4,65.7,220.2,64.5z"/>
				
					<linearGradient id="SVGID_6_" gradientUnits="userSpaceOnUse" x1="86.078" y1="98.7068" x2="86.078" y2="60.9811" gradientTransform="matrix(0.9994 3.350000e-02 -3.350000e-02 0.9994 3.0472 9.4855)">
					<stop  offset="0" style="stop-color:#C7EFFF"/>
					<stop  offset="1" style="stop-color:#F8FEFF"/>
				</linearGradient>
				<path class="st5" d="M220.5,66.8c1.7,10.6,3.4,21.2,5.1,31.8c-92.5,10.3-185.8,13.3-279.1,8.7c0.2-5.2,0.3-10.5,0.5-15.7
					c1.9-0.4,3.9,0.2,5.4,1.4c-0.1-0.5,0.2-1,0.6-1.3c0.4-0.3,0.9-0.5,1.5-0.4c-0.9-0.4-1.6-1.1-1.9-2c-0.3-0.9-0.3-1.8,0.2-2.6
					c-0.4-0.8-0.4-1.7-0.1-2.4c0,0.2,0.1,0.4,0,0.6c0.1-0.3,0.3-0.5,0.5-0.6c0.2-0.1,0.5-0.1,0.8,0c-0.1-0.4-0.2-0.7-0.3-1.1
					c-0.5-2.7,0.4-5.4,2.5-7.3c-0.3-0.8-0.1-1.6,0.4-2.2c0.5-0.6,1.4-0.8,2.2-0.7c0.8,0.2,1.5,0.8,1.7,1.5c0.3-0.6,0.8-1.1,1.5-1.3
					c0.7-0.2,1.4-0.1,2,0.3c0.8-1,1.9-1.6,3.1-2c0.5-0.2,1.1-0.2,1.7-0.3c0.9,0,1.8,0.1,2.6,0.4c0.1,0,0.2,0.1,0.3,0.1
					c2.7,1.2,4.3,3.9,3.9,6.7c0.8-0.6,2-0.7,2.9,0c0.7-1.5,2.4-2.4,4.2-2.2c0.2-1.2,0.9-2.3,2-2.9c0.4-0.2,0.8-0.3,1.2-0.4
					c1.6-0.3,3.2,0.3,4.2,1.5c0.1,0.1,0.2,0.2,0.2,0.3c2.1,0,4,1.1,5,2.9c1,1.8,0.9,3.9-0.3,5.5c0.4-0.2,0.9-0.2,1.3,0
					c0.4,0.2,0.7,0.6,0.8,1.1c1.1-1.9,3.1-3.1,5.4-3.3c-0.8-1.3-0.7-2.9,0.3-4c0.4-0.5,0.9-0.8,1.5-1c0.8-0.3,1.7-0.3,2.6,0
					c0.3-0.9,1.1-1.4,2.1-1.4c0.8,0,1.5,0.4,1.9,1c0.1,0.1,0.2,0.3,0.3,0.5c2.4-1.8,5.7-2.1,8.5-0.8c2.8,1.3,4.7,3.9,4.8,6.8
					c2.5-1.8,5.8-2,8.7-0.7c2.8,1.3,4.7,4,4.9,7c0.5-1.5,1.7-2.7,3.2-3.4c1.2-0.5,2.6-0.6,3.9-0.4c0.2,0,0.4,0.1,0.6,0.1
					c0.1,0,0.3,0.1,0.4,0.1c-0.1-0.5,0.1-0.9,0.5-1.2c0.4-0.3,0.9-0.3,1.4-0.2c-0.1-0.2-0.2-0.5-0.3-0.8c-0.1-0.8,0.3-1.6,1-2
					c1-0.5,2.3-0.2,2.9,0.8c0-0.8,0.5-1.5,1.3-1.8c0.5-0.2,1.1-0.2,1.6,0c0.3,0.1,0.5,0.3,0.7,0.5c0.6,0.6,0.8,1.4,0.5,2.2
					c1.4-2.2,4.1-3.3,6.6-2.7c0,0,0,0,0,0c0.4,0.1,0.7,0.2,1.1,0.3c0.4-1,1-1.9,1.9-2.6c1.3-1.1,3-1.6,4.8-1.5c0.2,0,0.3,0,0.5,0.1
					c2.8,0.4,5.1,2.3,5.8,4.9c0.9-0.8,2.3-0.9,3.3-0.1c1,0.8,1.3,2.1,0.7,3.1c1-1.1,2.8-1.1,4-0.1c0.3-0.5,0.9-0.8,1.5-0.8
					c0.6,0,1.2,0.4,1.6,0.9c0.3,0.5,0.3,1.2,0,1.7c1.4-1.7,3.4-2.8,5.6-3.2c0.1,0,0.1,0,0.2,0c1.5-0.2,3-0.1,4.5,0.4
					c0.9,0.3,1.7,0.7,2.5,1.2c1.5,0.8,2.7,2.1,3.1,3.6c0.1,0.3,0.3,0.6,0.4,0.9c1.8-1.3,4.2-1.6,6.3-0.7c2.2,0.9,3.7,2.8,3.9,5
					c0.3-1.1,1.2-2.1,2.3-2.6c1.1-0.5,2.4-0.6,3.6-0.2c-0.1-0.4,0.1-0.7,0.3-0.9c0.3-0.2,0.7-0.3,1-0.2c-0.5-0.7-0.3-1.6,0.4-2
					c0,0,0,0,0.1,0c0.5-0.3,1.1-0.3,1.6,0c0.2,0.1,0.4,0.3,0.6,0.5c0-0.1,0-0.3,0-0.4c0-0.2,0.1-0.4,0.3-0.6c0,0,0,0,0,0
					c0.1-0.2,0.3-0.3,0.6-0.4c0,0,0,0,0,0c0,0,0,0,0,0c0.2-0.1,0.3-0.1,0.5-0.1c0.4,0,0.9,0.1,1.2,0.4c0.5,0.4,0.7,1,0.4,1.6
					c1.1-1.9,3.5-2.8,5.7-2c0.5-1.5,1.7-2.6,3.2-3.1c0.2-0.1,0.5-0.1,0.7-0.1c0.3,0,0.6-0.1,0.9-0.1c1.1,0,2.1,0.4,2.9,1
					c0.1-1.3,0.4-2.6,0.9-3.8c1-2.1,2.6-3.8,4.9-4.9c0,0,0,0,0.1,0c4.1-1.9,9.2-1.1,12.7,1.9c-0.5-0.6-0.6-1.3-0.4-2
					c0.3-0.7,0.9-1.1,1.6-1.2c0.4-0.1,0.8,0,1.1,0.1c0.1,0,0.2,0.1,0.3,0.1c0.2,0.1,0.4,0.3,0.6,0.5c1.2-1.3,3.3-1.5,4.7-0.4
					c-0.8-0.9-0.9-2.2-0.3-3.2c0.1-0.2,0.3-0.4,0.4-0.5c0.5-0.5,1.1-0.8,1.8-0.8c0.7-0.1,1.5,0.1,2.1,0.6c0.1-1.1,0.4-2.1,0.9-3
					c0.6-1.1,1.5-2,2.6-2.6c0.8-0.5,1.7-0.9,2.7-1.1c3.4-0.6,7,1,8.7,3.9c2.8-1.7,7.5-0.9,9.6,1.7c-0.5-0.8-0.5-1.9,0.1-2.6
					c0.2-0.2,0.4-0.4,0.7-0.6c0.1-0.1,0.3-0.2,0.4-0.2c0.5-0.2,1-0.2,1.5-0.1c1,0.2,1.7,1,1.9,1.9c0.5-1.2,2-1.8,3.3-1.3
					c1.3,0.5,2,1.9,1.5,3.1c0.5-0.3,1.1-0.3,1.7,0c0.5,0.3,0.9,0.8,0.9,1.4c1.7-0.9,3.8-1.1,5.7-0.6c1.9,0.6,3.6,1.8,4.5,3.5
					C217.1,68.1,219.8,67.1,220.5,66.8z"/>
				<g>
					<path class="st4" d="M75.7,89.2c0.3-0.2,0.7-0.2,1.1-0.3c0,0-0.1-0.1-0.1-0.1c-0.5-0.5-1.3-0.8-2-0.9
						C75.1,88.3,75.5,88.7,75.7,89.2z"/>
					<path class="st4" d="M79.5,89.9c0.1,0.1,0.2,0.2,0.3,0.4c-0.1-0.1-0.1-0.3-0.1-0.4c0-0.2,0.1-0.5,0.3-0.7
						c0.2-0.2,0.4-0.3,0.7-0.3c-0.1-0.2-0.3-0.4-0.5-0.5c-0.5-0.2-1.1-0.1-1.3,0.4c0-0.4-0.3-0.7-0.7-0.8c-0.4-0.1-0.8,0-1,0.3
						c-0.2,0.2-0.2,0.4-0.2,0.6c0,0.1,0,0.1,0,0.2C77.8,88.8,78.8,89.2,79.5,89.9z"/>
					<path class="st4" d="M-16.2,89.8c0.2,0.4,0.3,0.9,0.2,1.4c0.4-0.3,0.9-0.3,1.2,0c0.2-0.4,0.6-0.7,1-0.9
						c0.3-0.1,0.5-0.1,0.8-0.1c0.1-0.7,0.6-1.3,1.4-1.4c0.7-0.1,1.5,0.2,1.9,0.8c0.2,0,0.4,0,0.6,0.1c0-0.3-0.1-0.5-0.2-0.8
						c-0.3-0.6-0.7-1.1-1.4-1.3c-1.1-0.4-2.3-0.2-3,0.7c-0.2-0.1-0.5-0.2-0.8-0.1c-0.1,0-0.1,0.1-0.2,0.1c-0.2,0.1-0.3,0.2-0.4,0.4
						c-0.1-0.3-0.4-0.5-0.7-0.6c0,0,0,0,0,0c-0.2,0-0.5,0-0.7,0.1c-0.1,0-0.1,0.1-0.2,0.2c-0.2,0.2-0.2,0.5-0.2,0.7
						C-16.5,89.3-16.3,89.6-16.2,89.8z"/>
					<path class="st4" d="M27.8,92.8c0.4-0.3,1-0.4,1.4,0c0.4,0.3,0.5,0.9,0.2,1.3c0.5-0.5,1.3-0.4,1.7,0c0.1-0.2,0.4-0.3,0.7-0.3
						c0.3,0,0.5,0.2,0.7,0.4c0.1,0.2,0.1,0.4,0.1,0.5c0,0.1-0.1,0.1-0.1,0.2c0.1-0.1,0.1-0.1,0.2-0.2c1.1-1.1,2.8-1.4,4.3-0.9
						c0.4,0.1,0.7,0.3,1,0.6c0.6,0.4,1.1,0.9,1.3,1.6c0.1,0.1,0.1,0.3,0.1,0.4c0.8-0.5,1.8-0.6,2.7-0.2c0.9,0.4,1.5,1.3,1.6,2.2
						c0.2-0.5,0.5-0.9,1-1.1c0.1-0.1,0.3-0.1,0.5-0.1c0.2,0,0.5,0,0.8,0c0.1,0,0.2,0,0.3,0.1c0,0,0,0,0.1,0c0-0.1,0-0.2,0.1-0.3
						c0,0,0,0,0,0c0,0,0.1-0.1,0.1-0.1c0.1,0,0.1-0.1,0.2-0.1c0,0,0,0,0,0c0.1,0,0.2,0,0.3,0c0,0,0,0,0-0.1c-0.1-0.3,0-0.7,0.3-0.8
						c0.3-0.2,0.8-0.1,0.9,0.2c0-0.3,0.2-0.5,0.4-0.6c0.3-0.1,0.6,0,0.7,0.2c0.2,0.2,0.3,0.5,0.2,0.7c0.5-0.7,1.4-1.1,2.3-0.8
						c0.1,0,0.2,0.1,0.3,0.1c0,0,0-0.1,0.1-0.1c0.4-0.8,1.2-1.2,2.1-1.2c0,0,0.1,0,0.1,0c0.4,0.1,0.8,0.2,1.1,0.5
						c0.1-0.9,0.5-1.8,1.2-2.5c0.4-0.5,1-0.8,1.6-1.1c1.8-0.7,3.8-0.3,5.2,0.9c0.1,0.1,0.1,0.1,0.2,0.2c0,0-0.1-0.1-0.1-0.1
						c-0.1-0.2-0.1-0.5,0-0.7c0.1-0.3,0.4-0.5,0.7-0.5c0.3,0,0.6,0.1,0.8,0.4c0.2-0.2,0.5-0.3,0.8-0.4c0.4-0.1,0.9,0,1.3,0.4
						c-0.2-0.3-0.3-0.6-0.2-0.9c0-0.3,0.2-0.5,0.4-0.7c0.3-0.2,0.7-0.3,1.1-0.3c0.2,0,0.5,0.1,0.7,0.3c0.1-0.5,0.3-1,0.6-1.4
						c0.5-0.7,1.4-1.2,2.3-1.3c0.2,0,0.3,0,0.5,0c-0.7-0.6-1.6-0.9-2.5-0.8c-0.9,0.1-1.6,0.5-2.1,1.2c-0.3,0.4-0.5,0.8-0.5,1.2
						c-0.2-0.1-0.4-0.2-0.6-0.3c-0.3,0-0.7,0-0.9,0.3c-0.2,0.2-0.3,0.4-0.4,0.6c0,0.3,0,0.6,0.2,0.8C65.4,90,65,89.9,64.6,90
						c-0.3,0-0.5,0.2-0.7,0.4c-0.2-0.2-0.5-0.4-0.7-0.3c-0.3,0-0.5,0.2-0.7,0.4c-0.1,0.2-0.1,0.5,0,0.7c0,0,0,0.1,0.1,0.1
						c-0.1-0.1-0.1-0.1-0.2-0.2c-1.3-1.1-3.1-1.5-4.7-0.9c-0.6,0.2-1,0.6-1.4,1c-0.6,0.6-1,1.4-1,2.3c-0.3-0.2-0.6-0.4-1-0.4
						c0,0-0.1,0-0.1,0c-0.8-0.1-1.6,0.4-1.9,1c0,0,0,0.1-0.1,0.1c-0.1,0-0.2-0.1-0.2-0.1c-0.8-0.2-1.6,0.1-2,0.7
						c0.1-0.2,0-0.5-0.1-0.6C49.5,94,49.3,94,49,94c-0.2,0.1-0.4,0.3-0.4,0.5c-0.2-0.3-0.6-0.4-0.9-0.2c-0.3,0.1-0.4,0.5-0.3,0.7
						c0,0,0,0,0,0.1c-0.1,0-0.2,0-0.2,0c0,0,0,0,0,0c-0.1,0-0.1,0-0.2,0.1c0,0-0.1,0.1-0.1,0.1c0,0,0,0,0,0c0,0.1-0.1,0.2-0.1,0.3
						c0,0,0,0-0.1,0c-0.1,0-0.2,0-0.2-0.1c-0.2,0-0.5,0-0.7,0c-0.1,0-0.3,0.1-0.4,0.1c-0.4,0.2-0.8,0.5-0.9,1c0-0.9-0.6-1.6-1.4-2
						c-0.8-0.4-1.7-0.3-2.5,0.2c0-0.1-0.1-0.2-0.1-0.4c-0.2-0.6-0.6-1.1-1.2-1.4c-0.3-0.2-0.6-0.4-0.9-0.5c-1.4-0.5-2.9-0.2-3.9,0.8
						c-0.1,0.1-0.1,0.1-0.2,0.2c0-0.1,0.1-0.1,0.1-0.2c0.1-0.2,0-0.3,0-0.5c-0.1-0.2-0.3-0.3-0.6-0.4c-0.2,0-0.5,0.1-0.6,0.3
						c-0.4-0.4-1.1-0.4-1.6,0c0.3-0.4,0.2-0.9-0.2-1.2c-0.4-0.3-0.9-0.3-1.3,0c-0.2-1.1-1.2-1.9-2.4-2c-0.9-0.1-1.8,0.3-2.3,0.9
						c-0.1,0.1-0.1,0.2-0.2,0.3C26.6,90.8,27.5,91.7,27.8,92.8z"/>
					<path class="st4" d="M-7.4,90.9c0,0.1,0.1,0.1,0.1,0.2c0.3,0.7,0.3,1.6-0.2,2.2c0.2-0.1,0.4-0.1,0.6,0c0.2,0.1,0.3,0.3,0.3,0.5
						c0.5-0.8,1.3-1.3,2.3-1.4c-0.3-0.5-0.3-1-0.1-1.4c0-0.1,0.1-0.2,0.2-0.3c0.4-0.5,1.1-0.7,1.8-0.4c0.1-0.4,0.5-0.6,0.9-0.6
						c-0.4-0.5-1.1-0.9-1.8-0.9c-0.4-0.6-1.1-0.8-1.7-0.7c-0.7,0.1-1.2,0.6-1.2,1.3c-0.3,0-0.5,0-0.7,0.1c-0.4,0.1-0.7,0.4-0.9,0.8
						C-8,90-8.2,90-8.3,90C-8,90.2-7.7,90.5-7.4,90.9z"/>
					<path class="st4" d="M3.1,89.8c1.2,0.6,2,1.7,2.1,3c1.1-0.7,2.5-0.8,3.8-0.3c1.1,0.5,1.8,1.5,2,2.6c0,0.2,0,0.3,0,0.5
						c0.1-0.1,0.1-0.3,0.2-0.4c0.2-0.4,0.6-0.7,0.9-0.9c0.1,0,0.2-0.1,0.3-0.1c0.7-0.3,1.4-0.3,2.1,0c0-0.2,0.1-0.4,0.2-0.5
						c0.1-0.1,0.2-0.1,0.4-0.1c-0.2-1-0.8-1.8-1.8-2.3c-1.1-0.5-2.4-0.4-3.4,0.2c0-1.1-0.8-2.2-1.9-2.7c-1.1-0.5-2.4-0.4-3.3,0.3
						c-0.1-0.3-0.5-0.6-0.8-0.6c-0.4,0-0.7,0.2-0.8,0.5c-0.6-0.2-1.2,0-1.6,0.4C2.1,89.5,2.6,89.6,3.1,89.8z"/>
					<path class="st4" d="M155.2,83.5c0.4,0.3,0.6,0.7,0.8,1.2c0.2-0.4,0.6-0.6,1.1-0.5c0-0.5,0.2-0.9,0.5-1.2
						c0.2-0.2,0.4-0.3,0.7-0.4c-0.2-0.7,0-1.4,0.6-1.9c0.6-0.4,1.4-0.5,2.1-0.1c0.2-0.1,0.4-0.1,0.6-0.2c-0.1-0.2-0.3-0.5-0.5-0.7
						c-0.5-0.4-1.1-0.7-1.8-0.7c-1.1,0-2.1,0.8-2.3,1.8c-0.3,0-0.6,0.1-0.8,0.2c-0.1,0.1-0.1,0.1-0.1,0.2c-0.1,0.2-0.2,0.3-0.1,0.5
						c-0.2-0.2-0.6-0.3-0.9-0.3c0,0,0,0,0,0c-0.2,0.1-0.4,0.2-0.5,0.4c0,0.1-0.1,0.1-0.1,0.2c-0.1,0.3,0,0.5,0.2,0.7
						C154.7,83.2,154.9,83.3,155.2,83.5z"/>
					<path class="st4" d="M163.4,80.9c0.1,0,0.1,0.1,0.1,0.1c0.6,0.5,1,1.3,0.8,2.1c0.1-0.2,0.3-0.3,0.5-0.2c0.2,0,0.4,0.1,0.5,0.3
						c0-0.9,0.6-1.8,1.4-2.2c-0.5-0.3-0.7-0.8-0.7-1.3c0-0.1,0-0.2,0-0.3c0.2-0.6,0.7-1.1,1.4-1.1c0-0.4,0.2-0.7,0.5-0.9
						c-0.6-0.3-1.4-0.3-2-0.1c-0.6-0.4-1.3-0.3-1.9,0.1c-0.5,0.4-0.7,1.1-0.5,1.7c-0.2,0.1-0.4,0.2-0.6,0.4
						c-0.3,0.3-0.4,0.7-0.4,1.1c-0.2,0-0.3,0-0.5,0C162.7,80.5,163.1,80.7,163.4,80.9z"/>
					<path class="st4" d="M172.4,75.7c1.3,0,2.6,0.8,3.2,1.9c0.6-1.1,1.9-1.8,3.2-1.8c1.2,0,2.3,0.6,3,1.5c0.1,0.1,0.2,0.3,0.3,0.4
						c0-0.2,0-0.3,0-0.4c0-0.4,0.2-0.8,0.4-1.2c0.1-0.1,0.1-0.2,0.2-0.2c0.5-0.5,1.1-0.8,1.9-0.8c-0.1-0.2-0.1-0.4,0-0.6
						c0.1-0.1,0.2-0.2,0.3-0.3c-0.6-0.8-1.6-1.3-2.7-1.4c-1.2,0-2.3,0.6-2.9,1.6c-0.6-1-1.7-1.7-2.9-1.7c-1.2,0-2.3,0.6-2.8,1.6
						c-0.3-0.2-0.7-0.3-1-0.2c-0.3,0.1-0.5,0.5-0.5,0.8c-0.6,0.1-1.1,0.4-1.2,1C171.3,75.8,171.8,75.7,172.4,75.7z"/>
					<path class="st4" d="M18.6,92.2C18.6,92.2,18.6,92.2,18.6,92.2c0.2,0.2,0.3,0.6,0.2,0.9c0,0,0,0.1,0,0.1c0,0,0,0,0-0.1
						c0.3-0.5,0.8-0.8,1.4-1c0.6-0.2,1.3-0.2,2,0.1c0.1-0.3,0.2-0.5,0.4-0.7c0.3-0.3,0.6-0.6,0.9-0.7c0,0-0.1,0-0.1,0
						c-0.5,0.2-0.9,0.5-1.2,0.9c0,0,0,0,0,0.1c0,0,0,0,0-0.1c0.1-0.3,0-0.6-0.2-0.8c-0.2-0.2-0.6-0.3-0.9-0.2
						c-0.3,0.1-0.5,0.4-0.5,0.7c-0.2-0.4-0.7-0.5-1.1-0.3c-0.2,0.1-0.4,0.3-0.4,0.6c0,0.2,0,0.3,0.1,0.5
						C19,92.1,18.7,92.1,18.6,92.2z"/>
				</g>
			</g>
			<linearGradient id="SVGID_7_" gradientUnits="userSpaceOnUse" x1="77.2889" y1="218.6165" x2="77.2889" y2="103.8429">
				<stop  offset="0.5101" style="stop-color:#6E9765"/>
				<stop  offset="1" style="stop-color:#80A478"/>
			</linearGradient>
			<path class="st6" d="M154.6,105.2l0,113.4H0V115.5C59.5,106.6,114.1,101.2,154.6,105.2z"/>
			<g class="st1">
				<linearGradient id="SVGID_8_" gradientUnits="userSpaceOnUse" x1="-1.100000e-03" y1="132.2867" x2="154.5789" y2="132.2867">
					<stop  offset="0" style="stop-color:#456968"/>
					<stop  offset="4.216045e-02" style="stop-color:#466B67"/>
					<stop  offset="0.6253" style="stop-color:#558156"/>
					<stop  offset="1" style="stop-color:#5A8950"/>
				</linearGradient>
				<polygon class="st7" points="154.6,120.7 154.6,125 81.9,133.8 97.8,137.7 0,148.8 0,117.9 116,115.8 				"/>
				<linearGradient id="SVGID_9_" gradientUnits="userSpaceOnUse" x1="-1.100000e-03" y1="120.3557" x2="116.0389" y2="120.3557">
					<stop  offset="0" style="stop-color:#456968"/>
					<stop  offset="4.216045e-02" style="stop-color:#466B67"/>
					<stop  offset="0.6253" style="stop-color:#558156"/>
					<stop  offset="1" style="stop-color:#5A8950"/>
				</linearGradient>
				<polygon class="st8" points="116,115.8 0,127.1 0,113.6 				"/>
				<polygon class="st9" points="154.6,125 81.9,133.8 97.8,137.7 0,148.8 0,141.1 68,133.4 55,129.2 154.6,122.2 				"/>
			</g>
			<g class="st1">
				<path class="st10" d="M91.1,115.1c10.5-0.6,20.9-0.1,25,0.1c4.1,0.2-7.7,1.1-17.1,1.3C89.7,116.7,76,115.9,91.1,115.1z"/>
				<polygon class="st11" points="97.2,101.7 98,97.2 100.4,96.4 98,102.5 				"/>
				<g>
					<path class="st11" d="M99.9,93.6c-2.2,2.5-0.9,4.2-0.9,4.2S100.6,95.1,99.9,93.6z"/>
					<path class="st11" d="M98.3,95.1c-0.9,1.9,0.4,2.5,0.4,2.5S99.1,95.8,98.3,95.1z"/>
				</g>
				<g>
					<path class="st11" d="M111.9,97.7c-0.5,2.8-2.8,2.9-2.8,2.9S110.2,98.1,111.9,97.7z"/>
					<path class="st11" d="M115.9,102.5c-1.2,2.1-2.9,2-2.9,2S114.6,102.7,115.9,102.5z"/>
				</g>
				<g>
					<path class="st11" d="M85.1,98.7c3.7,1.3,4.1,4.4,4.1,4.4S85.8,101,85.1,98.7z"/>
					<path class="st11" d="M88.9,99.5c1.4,2.3,0.2,3.5,0.2,3.5S88.2,100.6,88.9,99.5z"/>
					<path class="st11" d="M85.4,100.8c2.3-0.1,3.3,1.8,3.3,1.8S86.4,102.2,85.4,100.8z"/>
				</g>
				<g>
					<linearGradient id="SVGID_10_" gradientUnits="userSpaceOnUse" x1="99.3936" y1="116.9429" x2="101.7568" y2="94.8125">
						<stop  offset="0" style="stop-color:#374244"/>
						<stop  offset="0.3074" style="stop-color:#415E5D"/>
						<stop  offset="0.4961" style="stop-color:#456968"/>
						<stop  offset="1" style="stop-color:#5A8950"/>
					</linearGradient>
					<path class="st12" d="M116.2,113.3c-8.3,2.1-18.7,2.2-24.8,1.4c-12.5-1.7-8.9-8.2-3.5-5.5c-11.4-7.1-3.2-10.4,1-6.1
						c-0.3-0.4-7.6-8.6-1.7-11.7c4.8-2.5,6.8,3.8,7.4,6.6c-0.2-1.5-0.4-3.9,0.8-4.3c1.8-0.6,1.6,3.1,1.6,3.1s2.5-3.2,1,4.3
						c2-9.5,8.1-14.6,12-14.7c3.7-0.1,5.3,4.4-0.7,14.1c8.9-7.3,11-2.4,4,3.8c6.6-4.6,9.3,3.1,1.2,4
						C120.3,107.7,119.8,112.4,116.2,113.3z"/>
					<path class="st13" d="M109.2,100.6c-5.6,5.6-7.6,6.4-6.9,1c0.9-7,4.1-13.6,7.6-15.1C113.7,86.4,115.3,90.9,109.2,100.6z"/>
					<path class="st13" d="M110.7,102.7c3.4-5.2,4.8-5.6,6-5.3c1.2,0.3,1.1,3.3-3.5,7C108.7,108,109.6,104.4,110.7,102.7z"/>
					<path class="st13" d="M113,105.9c4.3-3.5,6.1-3.1,6.5-1.6c0.5,2-4.2,3.2-6.2,3.2C112.4,107.5,111.4,107.2,113,105.9z"/>
					<path class="st13" d="M102.6,109.1c2-7.7,5.2-5.9,5.5-4.5C108.6,107.2,101.7,112.3,102.6,109.1z"/>
					<path class="st13" d="M97.4,109.6c-5.9-5.3-2.9-7.3-1.4-6.9C98.4,103.4,99.8,111.8,97.4,109.6z"/>
					<path class="st13" d="M99.1,108c-2.7-4.7-0.3-5.3,0.5-4.8C101,104.2,100.2,109.9,99.1,108z"/>
					<path class="st13" d="M90.9,103c-5.5-6.3-6.5-9.4-3.8-11.3c3.7-2.6,6.8,1.3,7.5,6.4C95.4,103.2,92.3,104.5,90.9,103z"/>
					<path class="st13" d="M95.5,97.6c-0.2-3.6,0-3.5,0.6-3.6c0.6-0.1,0.8,3.4,0.5,5.3c1.2-1.9,1.5-0.3,1,1.5
						C97.1,102.7,95.8,103.2,95.5,97.6z"/>
					<path class="st13" d="M90.8,109.4c-1.1-1.2-1.2-1.9-0.7-1.9c0.7,0,1.7,1,2,1.9c0.5-1.4,1.1-1,1.2-0.1
						C93.5,110.3,92.6,111.3,90.8,109.4z"/>
					<path class="st13" d="M90.2,104.2c-3.4-3.8-6.8-4-7.9-2.1c-1,1.9,1.8,3.4,6.8,4.4C94.2,107.6,92.1,106.3,90.2,104.2z"/>
					<path class="st13" d="M90.2,110.2c-4.2-2.6-6.8-1.5-6.7-0.8c0.3,1.8,6.1,3,7.9,2.4C91.8,111.7,91.6,111,90.2,110.2z"/>
				</g>
				<g>
					<path class="st11" d="M96.6,108.3c1.6,0.4,1.6,1.8,1.6,1.8S96.8,109.3,96.6,108.3z"/>
					<path class="st11" d="M98.3,108.4c0.5,1-0.1,1.6-0.1,1.6S97.9,109,98.3,108.4z"/>
				</g>
				<g>
					<path class="st11" d="M90.9,102.1c1.6,0.4,1.6,1.8,1.6,1.8S91,103.1,90.9,102.1z"/>
					<path class="st11" d="M92.6,102.3c0.5,1-0.1,1.6-0.1,1.6S92.1,102.8,92.6,102.3z"/>
				</g>
				<g>
					<path class="st11" d="M94,99.9c-2.2,2.5-0.9,4.2-0.9,4.2S94.7,101.4,94,99.9z"/>
					<path class="st11" d="M92.5,101.4c-0.9,1.9,0.4,2.5,0.4,2.5S93.2,102.1,92.5,101.4z"/>
				</g>
				<g>
					<path class="st11" d="M112.8,103.2c-3.1,1.1-2.9,3.2-2.9,3.2S112.7,104.8,112.8,103.2z"/>
					<path class="st11" d="M110.7,103.7c-1.7,1.2-0.9,2.4-0.9,2.4S111,104.7,110.7,103.7z"/>
				</g>
				<g>
					<path class="st11" d="M104.6,101.9c-2.4,2.3-1.3,4.1-1.3,4.1S105.1,103.5,104.6,101.9z"/>
					<path class="st11" d="M102.9,103.3c-1,1.8,0.2,2.6,0.2,2.6S103.6,104.1,102.9,103.3z"/>
				</g>
			</g>
			<g class="st1">
				<path class="st10" d="M139.9,138.2c20.2-1.1,40.2-0.2,48.1,0.2c8,0.4-14.8,2-32.8,2.5C137.3,141.3,110.9,139.8,139.9,138.2z"/>
				<polygon class="st11" points="151.7,112.5 153.3,103.8 157.7,102.3 153.3,114.1 				"/>
				<g>
					<path class="st11" d="M156.9,96.9c-4.2,4.8-1.7,8.1-1.7,8.1S158.1,99.8,156.9,96.9z"/>
					<path class="st11" d="M153.9,99.9c-1.6,3.6,0.8,4.9,0.8,4.9S155.4,101.2,153.9,99.9z"/>
				</g>
				<g>
					<path class="st11" d="M180,104.8c-0.9,5.3-5.3,5.5-5.3,5.5S176.8,105.6,180,104.8z"/>
					<path class="st11" d="M187.7,114c-2.4,4-5.6,3.9-5.6,3.9S185.1,114.4,187.7,114z"/>
				</g>
				<g>
					<path class="st11" d="M128.4,106.7c7.2,2.6,7.9,8.5,7.9,8.5S129.8,111.2,128.4,106.7z"/>
					<path class="st11" d="M135.7,108.3c2.8,4.4,0.3,6.7,0.3,6.7S134.2,110.4,135.7,108.3z"/>
					<path class="st11" d="M128.9,110.8c4.5-0.3,6.4,3.5,6.4,3.5S130.8,113.4,128.9,110.8z"/>
				</g>
				<g>
					<linearGradient id="SVGID_11_" gradientUnits="userSpaceOnUse" x1="155.8711" y1="141.7984" x2="160.4185" y2="99.2141">
						<stop  offset="0" style="stop-color:#374244"/>
						<stop  offset="0.3074" style="stop-color:#415E5D"/>
						<stop  offset="0.4961" style="stop-color:#456968"/>
						<stop  offset="1" style="stop-color:#5A8950"/>
					</linearGradient>
					<path class="st14" d="M188.2,134.8c-15.9,4-36,4.2-47.6,2.7c-24.1-3.3-17.1-15.8-6.8-10.6c-22-13.7-6.1-20,1.9-11.7
						c-0.6-0.7-14.7-16.5-3.2-22.4c9.3-4.8,13.1,7.3,14.3,12.8c-0.5-2.9-0.8-7.5,1.5-8.2c3.4-1.1,3,5.9,3,5.9s4.9-6.2,2,8.2
						c3.8-18.2,15.7-28.1,23.1-28.3c7.1-0.2,10.1,8.4-1.4,27.1c17-14.1,21.2-4.6,7.8,7.2c12.7-8.8,17.9,6,2.3,7.7
						C196.1,124,195.1,133.1,188.2,134.8z"/>
					<path class="st13" d="M174.8,110.3c-10.8,10.8-14.7,12.3-13.3,2c1.8-13.4,7.9-26.3,14.7-29.1C183.3,83,186.4,91.7,174.8,110.3z
						"/>
					<path class="st13" d="M177.7,114.3c6.6-9.9,9.3-10.7,11.6-10.2c2.4,0.5,2.1,6.4-6.7,13.4C173.8,124.5,175.5,117.6,177.7,114.3z
						"/>
					<path class="st13" d="M182.1,120.6c8.4-6.8,11.7-6,12.4-3.1c1,3.9-8.1,6.2-12,6.2C181,123.7,179,123.1,182.1,120.6z"/>
					<path class="st13" d="M161.9,126.8c3.9-14.8,10-11.4,10.6-8.6C173.5,123.1,160.3,133,161.9,126.8z"/>
					<path class="st13" d="M152,127.7c-11.4-10.2-5.5-14.1-2.8-13.4C154,115.7,156.7,131.9,152,127.7z"/>
					<path class="st13" d="M155.2,124.6c-5.3-9-0.7-10.3,0.9-9.2C159,117.2,157.4,128.3,155.2,124.6z"/>
					<path class="st13" d="M139.6,115c-10.6-12.1-12.6-18-7.3-21.8c7.1-5,13.1,2.6,14.5,12.4C148.1,115.4,142.1,117.9,139.6,115z"/>
					<path class="st13" d="M148.4,104.6c-0.4-7,0-6.8,1.1-6.9c1.1-0.1,1.5,6.5,1,10.3c2.4-3.6,2.8-0.6,2,2.9
						C151.5,114.3,148.9,115.4,148.4,104.6z"/>
					<path class="st13" d="M139.4,127.4c-2.2-2.4-2.4-3.7-1.3-3.6c1.4,0.1,3.3,2,3.9,3.7c1-2.7,2.1-1.9,2.4-0.1
						C144.6,129.1,142.7,131,139.4,127.4z"/>
					<path class="st13" d="M138.2,117.3c-6.5-7.2-13.1-7.7-15.1-4c-2,3.7,3.4,6.5,13.2,8.5C145.9,123.8,141.9,121.4,138.2,117.3z"/>
					<path class="st13" d="M138.1,128.8c-8-5-13.1-2.9-12.9-1.5c0.6,3.5,11.7,5.7,15.2,4.6C141.2,131.7,140.8,130.4,138.1,128.8z"/>
				</g>
				<g>
					<path class="st11" d="M150.5,125.1c3.2,0.8,3.2,3.5,3.2,3.5S150.8,127.1,150.5,125.1z"/>
					<path class="st11" d="M153.7,125.5c1,1.9-0.2,3-0.2,3S153,126.5,153.7,125.5z"/>
				</g>
				<g>
					<path class="st11" d="M139.4,113.3c3.2,0.8,3.2,3.5,3.2,3.5S139.8,115.2,139.4,113.3z"/>
					<path class="st11" d="M142.7,113.6c1,1.9-0.2,3-0.2,3S141.9,114.6,142.7,113.6z"/>
				</g>
				<g>
					<path class="st11" d="M145.6,108.9c-4.2,4.8-1.7,8.1-1.7,8.1S146.8,111.8,145.6,108.9z"/>
					<path class="st11" d="M142.5,111.9c-1.6,3.6,0.8,4.9,0.8,4.9S144,113.2,142.5,111.9z"/>
				</g>
				<g>
					<path class="st11" d="M181.8,115.3c-6,2.1-5.5,6.1-5.5,6.1S181.4,118.4,181.8,115.3z"/>
					<path class="st11" d="M177.6,116.3c-3.2,2.3-1.7,4.6-1.7,4.6S178.3,118.2,177.6,116.3z"/>
				</g>
				<g>
					<path class="st11" d="M165.9,112.9c-4.6,4.4-2.5,7.9-2.5,7.9S166.9,115.9,165.9,112.9z"/>
					<path class="st11" d="M162.6,115.6c-2,3.4,0.3,4.9,0.3,4.9S164,117,162.6,115.6z"/>
				</g>
			</g>
			<g class="st1">
				<path class="st10" d="M-7.4,114.3c13.2-1.3,33.1-2,42.3-0.5c9.2,1.6-25.8,2.4-44.1,1.6C-15.9,115.1-15.9,115.1-7.4,114.3z"/>
				<g>
					<path class="st11" d="M15.5,79.3c-4,4.6-1.7,7.8-1.7,7.8S16.7,82.1,15.5,79.3z"/>
					<path class="st11" d="M12.6,83.1c-1.6,3.5,0.7,4.7,0.7,4.7S14,84.4,12.6,83.1z"/>
				</g>
				<path class="st11" d="M31.8,80.1c-2,7-6.8,8.2-6.8,8.2S28.2,81.8,31.8,80.1z"/>
				<path class="st11" d="M31.8,104.3c-6,4.2-10.4,2.1-10.4,2.1S27.9,103.3,31.8,104.3z"/>
				<path class="st11" d="M31.9,84.4c-6.8,8.3-12.1,10.3-12.1,10.3S27.4,86.8,31.9,84.4z"/>
				<g>
					<path class="st11" d="M-2.4,80.9c6,4.2,5.2,9.9,5.2,9.9S-2.2,85.4-2.4,80.9z"/>
					<path class="st11" d="M4,84.2c1.5,4.8-1.4,6.3-1.4,6.3S2.1,85.8,4,84.2z"/>
					<path class="st11" d="M-3,84.8c4.2,0.9,5.1,4.8,5.1,4.8S-1.9,87.7-3,84.8z"/>
				</g>
				<g>
					<path class="st11" d="M-12.5,96.4c4.6,2,4.9,5.4,4.9,5.4S-11.8,99-12.5,96.4z"/>
					<path class="st11" d="M-7.8,97.9c1.7,2.7,0,3.7,0,3.7S-8.8,98.9-7.8,97.9z"/>
					<path class="st11" d="M-12.4,98.7c2.9,0.2,4.1,2.4,4.1,2.4S-11.2,100.3-12.4,98.7z"/>
				</g>
				<g>
					<path class="st11" d="M-13.6,100.3c11.9,1.6,14.5,8.5,14.5,8.5S-10.2,105.4-13.6,100.3z"/>
					<path class="st11" d="M-1.9,100.7c5.5,4.7,2.3,7.9,2.3,7.9S-3.5,103.6-1.9,100.7z"/>
					<path class="st11" d="M-11.8,105.1c6.9-1.2,11,2.8,11,2.8S-8.1,107.8-11.8,105.1z"/>
				</g>
				<linearGradient id="SVGID_12_" gradientUnits="userSpaceOnUse" x1="10.2158" y1="117.359" x2="14.3856" y2="78.3105">
					<stop  offset="0" style="stop-color:#374244"/>
					<stop  offset="0.3074" style="stop-color:#415E5D"/>
					<stop  offset="0.4961" style="stop-color:#456968"/>
					<stop  offset="1" style="stop-color:#5A8950"/>
				</linearGradient>
				<path class="st15" d="M13,86.7c3.3-10.1,9.1-18.2,19.9-22.7c2.9,18.3-12.5,30.5-12.5,30.5S32.9,83,49.1,76.8
					c-4.4,24.7-27.4,29.4-27.4,29.4s7.6-1.6,16.5,0c-3.5,6-36.8,14.4-51.4,1.6c6-2.9,12.5,0,12.5,0S-18,96.7-20.2,78.6
					c14.1,0.7,20.4,7.8,23.1,10.7c-4.6-8.5-3.2-15.8-3.2-15.8S10.6,74.8,13,86.7z"/>
				<path class="st13" d="M15.1,94.5c0.6-12.7,3.8-23.7,18.4-31.5c-2.1,9.3-5.6,24-18.4,36.8c2-3.8,3.5-8.9,3.5-8.9
					S16.2,93.8,15.1,94.5z"/>
				<path class="st13" d="M23.6,95.2c8.8-10.7,21.9-17.1,26.2-18.7C47,82.3,42.9,90.8,23.6,95.2z"/>
				<path class="st13" d="M23,100.7c7.9-5.5,17.7-8.5,20.1-10C38.4,98.8,23,100.7,23,100.7z"/>
				<path class="st13" d="M-0.4,72.4c10.3,2.6,11.9,15,11.6,19.5c-4.6-4.6-6-6.5-6-6.5s1.7,3.9,1.3,5.4C1,83.7-1.3,77.2-0.4,72.4z"
					/>
				<path class="st13" d="M-20.2,78.6C-9.8,79,2.1,91.2,5.3,97.9c-7,1.2-11.6-4.6-11.6-4.6s2.1,3.1,3.7,6.6
					C-9.1,97.3-20.2,84.7-20.2,78.6z"/>
				<path class="st13" d="M15.5,101.4c-4.8,2.3,6.2-5.6,6.2-5.6S19.3,100.1,15.5,101.4z"/>
				<path class="st13" d="M3.1,90.5c4.6,2.1,4.7,6.8,4.7,6.8L3.1,90.5z"/>
				<path class="st13" d="M-6.8,100.3c4,4,8.5,4.8,8.5,4.8S-4.7,100.7-6.8,100.3z"/>
			</g>
			<linearGradient id="SVGID_13_" gradientUnits="userSpaceOnUse" x1="-117.4676" y1="162.8853" x2="565.496" y2="162.8853">
				<stop  offset="0" style="stop-color:#456968"/>
				<stop  offset="4.216045e-02" style="stop-color:#466B67"/>
				<stop  offset="0.6253" style="stop-color:#558156"/>
				<stop  offset="1" style="stop-color:#5A8950"/>
			</linearGradient>
			<path class="st16" d="M-117.5,165.5c227.3-11.3,387.1-55,638.3-1.8C772,217-117.5,165.5-117.5,165.5z"/>
			<path class="st17" d="M-56.8,162.9c99.2-3.7,169-18,278.6-0.6C331.5,179.7-56.8,162.9-56.8,162.9z"/>
			<linearGradient id="SVGID_14_" gradientUnits="userSpaceOnUse" x1="-325.9068" y1="211.2345" x2="357.0568" y2="211.2345">
				<stop  offset="0" style="stop-color:#456968"/>
				<stop  offset="4.216045e-02" style="stop-color:#466B67"/>
				<stop  offset="0.6253" style="stop-color:#558156"/>
				<stop  offset="1" style="stop-color:#5A8950"/>
			</linearGradient>
			<path class="st18" d="M-325.9,213.8c227.3-11.3,387.1-55,638.3-1.8C563.5,265.4-325.9,213.8-325.9,213.8z"/>
			<path class="st19" d="M58.5,164.5c27.4-1.8,68.4-2.7,87.4-0.6c19.1,2.1-53.4,3.3-91.2,2.2C41,165.7,41,165.7,58.5,164.5z"/>
			<path class="st19" d="M14.6,185.5c24-4.9,59.9-7.4,76.7-1.7c16.7,5.7-46.8,8.9-80,5.9C-0.8,188.7-0.8,188.7,14.6,185.5z"/>
			<path class="st19" d="M64.3,200.5c22.2-3.4,61.3-2.7,76.9-0.3s-42.7,5-74.5,2.5C62.4,202.3,58.2,201.5,64.3,200.5z"/>
			<g class="st1">
				<path class="st20" d="M138.3,96.3v8.3c-0.2-0.4-0.4-0.9-0.6-1.3v-7.1c0-3.1-2.5-5.6-5.6-5.6h-27.6c-3.1,0-5.6,2.5-5.6,5.6v3.7
					c-0.2,0.1-0.4,0.3-0.6,0.5v-4.2c0-3.4,2.8-6.2,6.2-6.2h27.6C135.5,90.2,138.3,92.9,138.3,96.3z"/>
				<radialGradient id="SVGID_15_" cx="118.458" cy="143.177" r="9.8884" gradientUnits="userSpaceOnUse">
					<stop  offset="0" style="stop-color:#FF9F58"/>
					<stop  offset="1" style="stop-color:#000000"/>
				</radialGradient>
				<circle class="st21" cx="118.5" cy="143.2" r="9.9"/>
				<g>
					<path class="st22" d="M116.7,152.8c-4.8-3.8-4.3-8-0.7-10.3c3.6-2.4,3.8-2.4,3-3.8c-0.8-1.5,0.6-2.3,0.6-2.3s-1.3,1.5,0,2.4
						c1.3,1,1.4,1.8,0.9,2.6c-0.6,0.8,0.8,1.8,1.4,2.7c0.6,0.9,1.9,4.5-2,8.6L116.7,152.8z"/>
					<path class="st23" d="M117.7,151.2c-1.6-2.9,0.3-4.5,0.5-5.5c0.3,0.7-0.9,1.8-0.3,4c0-1.9,1.4-2.9,1-4.5c0.8,1.9-0.8,4-0.4,5.3
						C118.7,151.8,117.7,151.2,117.7,151.2z"/>
					<path class="st24" d="M117.5,153.1c-2.9-2.9-3.5-4.5-2.8-6.9c0.8-2.4,3.3-2.6,3.8-4.4c0.4,1.9-3.7,4.5-1,8
						C120.3,153.3,117.5,153.1,117.5,153.1z"/>
					<path class="st24" d="M118.7,153.2c-2.7-3.1,1.5-4.4,0.8-7.3c-0.8-2.9-0.4-3.7,0.4-4.7c-0.9,1.6,1.7,2.6,1.5,5.3
						c-0.2,2.7-2.6,4.7-2.2,6.8C119.5,154.6,118.7,153.2,118.7,153.2z"/>
					<path class="st24" d="M117.7,150.7c-0.5-1.8,0.3-3,0.3-3s-0.3,2.1,0.1,2.9C118.6,151.3,117.7,150.7,117.7,150.7z"/>
					<path class="st24" d="M119.8,147.1c-0.3-1.2-0.7-1.8-0.7-1.8s0.7,2.1-0.2,4C120.2,147.8,119.8,147.1,119.8,147.1z"/>
					<path class="st23" d="M118,153.3c-0.6-2,1.8-3.6,2.2-5.1c-0.5,1.8-1.4,2.7-1.5,4.2C118.7,153.8,118,153.3,118,153.3z"/>
					<path class="st23" d="M119.3,153.7c-0.6-2,1.8-3.6,2.2-5.1c-0.5,1.8-1.4,2.7-1.5,4.2C119.9,154.2,119.3,153.7,119.3,153.7z"/>
					<path class="st23" d="M117.6,153.4c0-2.4-2.6-3.8-2.4-6.4c-0.9,1.3,0.7,3.2,0.8,4.3c-1,0-1.8-1.1-1.8-1.1s0.4,0.9,1.3,1.5
						c0.9,0.6,1.6,1.9,1.6,1.9L117.6,153.4z"/>
					<path class="st25" d="M117.5,153.5c-0.6-1.6-0.3-2.9-0.9-4.1c0.8,1.6,1.1,2.6,1.1,2.6s0.2-1.1,0.8-2c-0.7,1.9-0.7,3.6-0.7,3.6
						L117.5,153.5z"/>
					<path class="st25" d="M118.5,153.2c-0.3-1.5,1.6-2.1,2-5.1c-0.3,2.6-2,4.4-1.7,5.6C118.5,153.3,118.5,153.2,118.5,153.2z"/>
					<path class="st24" d="M118.7,144.1c-0.3-1.2,0.2-2.3,0.6-2.7C118.9,142.6,118.7,143.8,118.7,144.1z"/>
				</g>
				<path class="st25" d="M141.2,158.7c0.3,3.1-2.2,5.9-5.4,5.9h-2.6l-1.2-4.2h2.1c1.6,0,2.8-1.4,2.6-2.9l-4.5-42
					c-0.1-1-1-1.8-2-1.8h-2.6v-4.3h4.2c2.3,0,4.2,1.7,4.4,4L141.2,158.7C141.1,158.7,141.2,158.7,141.2,158.7z"/>
				<path class="st25" d="M141.2,158.7c0.1,1.5-0.4,3-1.3,4c-1,1.1-2.4,1.8-4,1.8h-2.6l-1.2-4.2h2.1c1,0,1.9-0.6,2.4-1.5
					c0.2-0.4,0.3-0.9,0.3-1.4l-4.5-42c-0.1-1-1-1.8-2-1.8h-2.6v-2.4c4.7,0.1,5-1.2,6.1,7.7c1.2,9.6,3.8,34.9,5.3,37.3
					C139.7,157.3,140.4,158.1,141.2,158.7z"/>
				<path class="st20" d="M139.8,162.7c-1,1.1-2.4,1.8-4,1.8h-2.6l-1.2-4.2h2.1c1,0,1.9-0.6,2.4-1.5
					C137.3,160.9,138.4,162.4,139.8,162.7z"/>
				<path class="st25" d="M109,109.3v4.3h-2.6c-1,0-1.9,0.8-2,1.8l-4.5,42c-0.2,1.5,1.1,2.9,2.6,2.9h2.1l-1.2,4.2h-2.6
					c-3.2,0-5.7-2.8-5.4-6l1.3-11.7l3.6-33.7c0.2-2.2,2.1-4,4.4-4H109z"/>
				<path class="st26" d="M135.2,164.6h-2l-1.2-4.2h1.3C133.6,161.9,134.3,163.5,135.2,164.6z"/>
				<path class="st25" d="M109,111.6v1.9h-2.6c-1,0-1.9,0.8-2,1.8l-3.8,35.5l-0.7,6.5c-0.2,1.5,1.1,2.9,2.6,2.9h2.1l-1.2,4.2h-2.6
					c-3.2,0-5.7-2.8-5.4-6l0.2-1.7l1.1-9.9c3.5-6.6,5.2-22.8,6-28.1C103.7,112.9,104.4,111.5,109,111.6z"/>
				<path class="st20" d="M104.7,160.3l-1.2,4.2h-2.6c-0.3,0-0.6,0-1-0.1c-2.7-0.5-4.7-3-4.4-5.9l0.2-1.7c2.8-1.8,4.1-3.7,4.9-6
					l-0.7,6.5c-0.2,1.5,1.1,2.9,2.6,2.9H104.7z"/>
				<path class="st27" d="M104.6,136.8l1.1,0.6c-1.4,6.6,11.5,15,16.6,17.6c0.3,0.2,0.4,0.5,0.3,0.8c-0.1,0.2-0.3,0.3-0.5,0.3
					c-0.1,0-0.2,0-0.3-0.1c-0.8-0.4-19.2-10.1-17.3-19C104.5,137,104.6,136.9,104.6,136.8z"/>
				<path class="st27" d="M132,136.8l-1.1,0.6c1.4,6.6-11.5,15-16.6,17.6c-0.3,0.2-0.4,0.5-0.3,0.8c0.1,0.2,0.3,0.3,0.5,0.3
					c0.1,0,0.2,0,0.3-0.1c0.8-0.4,19.2-10.1,17.3-19C132.1,137,132,136.9,132,136.8z"/>
				<rect x="109" y="108" class="st25" width="18.6" height="9.9"/>
				<polygon class="st25" points="130.4,119.8 106.2,119.8 109,117.9 127.6,117.9 				"/>
				<rect x="110.2" y="119.8" class="st20" width="16.3" height="6"/>
				<path class="st25" d="M129.9,130.3h-23.2c0-2.4,1.6-4.5,3.4-4.5h16.3c0.6,0,1.3,0.3,1.8,0.7c0.9,0.7,1.5,2,1.7,3.4
					C129.9,130,129.9,130.2,129.9,130.3z"/>
				<path class="st25" d="M123.2,152.2c1.1,0,2,1.3,2,2.7h-13.7c0-1.4,0.9-2.7,2-2.7H123.2z"/>
				<path class="st28" d="M130.4,151.3L130.4,151.3c-0.1,0.5-0.2,1-0.2,1.4c-0.3,1.4-0.5,2.2-0.5,2.2H107c0,0-0.2-0.7-0.4-2
					c-0.1-0.4-0.2-0.9-0.2-1.4c-0.6-3.9-1.3-10.8,0.1-17.1c0.1-0.4,0.2-0.9,0.3-1.3c0.3-1,0.6-2,1-2.9h21.1c0.4,1,0.8,2.1,1.1,3.2
					c0.1,0.4,0.2,0.9,0.3,1.3C131.6,140.9,131,147.4,130.4,151.3z"/>
				<path class="st29" d="M107.8,132.5c-1.2,3.9-1.7,17.4,0.2,20.8c1.6,1.6,18.7,0.8,18.7,0.8s-16.8,0-17.9-2
					C107.6,150.3,107.3,135,107.8,132.5z"/>
				<rect x="107" y="154.9" class="st20" width="22.7" height="2.6"/>
				<path class="st25" d="M133.2,164.6h-29.7c0-2.5,0.3-5.4,3.5-7.1h22.7c0,0,0.1,0.1,0.1,0.1c2.1,1.2,2.9,2.9,3.2,4.7
					C133.1,163,133.2,163.8,133.2,164.6z"/>
				<rect x="112.5" y="104.9" class="st20" width="11.6" height="3.1"/>
				<path class="st25" d="M127.6,104.9h-18.5c2.3-2,5.2-3.1,8.1-3.4c2.9-0.2,5.9,0.4,8.5,2C126.3,104,127,104.4,127.6,104.9z"/>
				<path class="st29" d="M118,131.2h9.9c0,0,2.9,12.7,0.3,20.3c0.6-8-1.8-19.6-1.8-19.6L118,131.2z"/>
				<path class="st27" d="M126.4,133.4c-6.5-0.1-17.7,5.6-21.1,18.4c-0.1,0.3,0.1,0.7,0.4,0.7c0.3,0.1,0.7-0.1,0.7-0.4
					c3.1-11.6,13.5-17.7,19.9-17.5c1.5,0,4,0.4,4.5,2.8c0,0,0,0,0,0l1.1-0.6C131.4,134.7,129.4,133.5,126.4,133.4z"/>
				<path class="st27" d="M110.2,133.4c6.5-0.1,17.7,5.6,21.1,18.4c0.1,0.3-0.1,0.7-0.4,0.7c-0.3,0.1-0.7-0.1-0.7-0.4
					c-3.1-11.6-13.5-17.7-19.9-17.5c-1.5,0-4,0.4-4.5,2.8c0,0,0,0,0,0l-1.1-0.6C105.3,134.7,107.3,133.5,110.2,133.4z"/>
				<path class="st20" d="M127.6,115.6v2.4H109V108h5.5C113.5,114.3,121.4,117,127.6,115.6z"/>
				<path class="st26" d="M127.6,117.4v0.6H109V108h2.2l-1.4,0.4c0,0-0.2,8,3.3,8.7C116,117.7,124.1,117.5,127.6,117.4z"/>
				<path class="st25" d="M125.2,117.9l-15.4,0.5c0,0-1.4,0.9-0.8,1.4h-2.8l2.8-1.9H125.2z"/>
				<path class="st26" d="M111.1,121.3c0,0-0.3,1.7,1.6,2.7c1.6,0.8,10.9,1.3,13.8,1.3v0.5h-16.3v-6h16.3v0.2L111.1,121.3z"/>
				<path class="st26" d="M124.1,105.1l-10.8,0.7c0,0,0.7,2.1,10.8,1.4v0.7h-11.6v-3.1h11.6V105.1z"/>
				<path class="st20" d="M127.6,104.9h-18.5c1.1-1,2.4-1.7,3.7-2.3c1.4-0.6,2.9-1,4.4-1.1c-5.3,2.2-2.3,4,8.5,2
					C126.3,104,127,104.4,127.6,104.9z"/>
				<path class="st26" d="M111.2,104.9h-2.1c1.1-1,2.4-1.7,3.7-2.3C111.3,103.9,110.8,104.5,111.2,104.9z"/>
				<path class="st25" d="M129.9,130.3h-23.2c0-2.4,1.6-4.5,3.4-4.5h16.3c0.6,0,1.3,0.3,1.8,0.7c-7.2-0.3-14.9-0.2-15.6,0.9
					c-0.7,1,14.6,2.3,17.2,2.5C129.9,130,129.9,130.2,129.9,130.3z"/>
				<path class="st20" d="M120,130.3h-13.2c0-2.4,1.6-4.5,3.4-4.5h3.3c-4.8,1.4-4.5,2.8-1.5,3.5C113.7,129.7,117.2,130.1,120,130.3z
					"/>
				<path class="st25" d="M118.9,101.9c-1.4,0.2-1.4,1,0.2,1c1.6,0,4,0.4,4.6,0.4c0.6,0-0.7-0.8-1.7-0.9
					C120.9,102.2,119.8,101.7,118.9,101.9z"/>
				<path class="st26" d="M129.7,156.9v0.6H107v-2.6h2.6c-1,0.5-1.4,1.1-1.4,1.1S123.8,156.8,129.7,156.9z"/>
				<path class="st20" d="M133.2,164.6h-29.7c0-2.5,0.3-5.4,3.5-7.1h22.7c0,0,0.1,0.1,0.1,0.1c-6.2,0.4-17.7,0.5-19.2,2.4
					c-1.4,1.8,17.5,2.1,22.4,2.2c0.1,0.5,0.1,1,0.1,1.6C133.2,164.1,133.2,164.3,133.2,164.6z"/>
				<path class="st26" d="M133.2,164.6h-29.7c0-2.5,0.3-5.4,3.5-7.1h1.4c-2.4,1.9-2.8,6.3,0.1,6.5c2.5,0.1,18.9-0.1,24.7-0.2
					C133.2,164.1,133.2,164.3,133.2,164.6z"/>
				<path class="st26" d="M104.7,160.3l-1.2,4.2h-2.6c-0.3,0-0.6,0-1-0.1c2-0.6,2.6-1.7,2.9-4.2H104.7z"/>
				<path class="st30" d="M132.3,109.9c1.9,0,3.1,1.8,3.6,5.2c0.5,3.5,1.9,14.4,1.7,15c-0.2,0.6-0.6,1.4-1-2.3
					c-0.4-3.6-1.5-13.9-2.2-15.4c-0.7-1.5-1.4-2.1-2.4-2.1C131,110.3,131.3,109.9,132.3,109.9z"/>
				<path class="st25" d="M121.4,108.5h5.6v5.6C127,114.1,125.9,109.4,121.4,108.5z"/>
				<path class="st25" d="M125.2,158.6c3.4,0,4.5-0.3,5.9,1.1c1.4,1.4-0.1,0.3-1.4,0c-1.3-0.3-2.6-0.5-4-0.5
					C124.3,159.2,123.8,158.6,125.2,158.6z"/>
				<g>
					<path class="st27" d="M99,113.2V100c-0.2,0.1-0.4,0.3-0.6,0.5v12.6c0,1.1,0.9,2,2,2v-0.6C99.6,114.5,99,113.9,99,113.2z"/>
					<path class="st27" d="M137.6,113.2c0,0.8-0.6,1.4-1.4,1.4v0.6c1.1,0,2-0.9,2-2v-8.5c-0.2-0.4-0.4-0.9-0.6-1.3V113.2z"/>
				</g>
				<path class="st31" d="M138.3,96.3v0.8c-0.2,0-0.4,0.1-0.6,0.1v-0.9c0-3.1-2.5-5.6-5.6-5.6h-15.4c-0.3-0.2-0.7-0.4-1-0.6h16.5
					C135.5,90.2,138.3,92.9,138.3,96.3z"/>
				<radialGradient id="SVGID_16_" cx="118.4579" cy="143.177" r="11.4914" gradientUnits="userSpaceOnUse">
					<stop  offset="0" style="stop-color:#E35F00"/>
					<stop  offset="7.634479e-02" style="stop-color:#C15100"/>
					<stop  offset="0.2046" style="stop-color:#8E3C00"/>
					<stop  offset="0.3355" style="stop-color:#632900"/>
					<stop  offset="0.4666" style="stop-color:#3F1A00"/>
					<stop  offset="0.5983" style="stop-color:#230F00"/>
					<stop  offset="0.7305" style="stop-color:#100700"/>
					<stop  offset="0.8639" style="stop-color:#040200"/>
					<stop  offset="1" style="stop-color:#000000"/>
				</radialGradient>
				<circle class="st32" cx="118.5" cy="143.2" r="11.5"/>
			</g>
			<g class="st1">
				<g>
					<path class="st31" d="M13.6,91c0.8-0.5,5.1-0.9,8.9-0.2c3.1,0.5,6,1.8,6.6,4.4c0.5,2.1,1.8,3.1,3.2,3.2
						c2.4,0.2,5.1-2.1,3.8-4.9c-1.6-4.4-1.9-4.9-9.6-4.9c-6.9,0-10.5-0.2-12.2,1.6C14,90.4,13.8,90.6,13.6,91z"/>
					<path class="st26" d="M12.2,165.5c3,24.1,11.4,19.3,17.1,20.1l2.2-3.9c0,0-8.7-0.4-9.8-8.1c-1.1-7.8-4.2-46.8-4.5-63.2
						c-0.3-16.4,1.2-19.4,5.3-19.6c-3.9-0.7-8.1-0.2-8.9,0.2C8.7,99.2,9.2,141.4,12.2,165.5z"/>
					<path class="st33" d="M13.6,91c0.8-0.5,5.1-0.9,8.9-0.2c3.1,0.5,6,1.8,6.6,4.4c0.5,2.1,1.8,3.1,3.2,3.2
						c-0.1-0.3-0.3-0.7-0.4-1.1c-1.1-3-4.3-6.9-6.7-7.5c-2.2-0.5-6.5-0.9-10.9,0.4C14,90.4,13.8,90.6,13.6,91z"/>
				</g>
				<g>
					<path class="st31" d="M43.8,88.6c0.8-0.5,5.1-0.9,8.9-0.2c3.1,0.5,6,1.8,6.6,4.4c0.7,3.2,3.4,3.7,5.3,2.8
						c1.5-0.8,2.6-2.5,1.7-4.5c-1.6-4.4-1.9-4.9-9.6-4.9c-5.2,0-8.6-0.1-10.7,0.6C44.9,87.2,44.2,87.7,43.8,88.6z"/>
					<path class="st26" d="M42.3,163.2c3,24.1,11.4,19.3,17.1,20.1l2.2-3.9c0,0-8.7-0.4-9.8-8.1c-1.1-7.8-4.2-46.8-4.5-63.2
						c-0.3-16.4,1.2-19.4,5.3-19.6c-3.9-0.7-8.1-0.2-8.9,0.2C38.9,96.9,39.3,139,42.3,163.2z"/>
					<path class="st33" d="M43.8,88.6c0.8-0.5,5.1-0.9,8.9-0.2c3.1,0.5,6,1.8,6.6,4.4c0.7,3.2,3.4,3.7,5.3,2.8
						c-4.1-8.6-12.2-9.1-18.6-8.8C44.9,87.2,44.2,87.7,43.8,88.6z"/>
				</g>
				<path class="st31" d="M29.3,185.6c4.2,0.5,10.5,0.7,17.5,0.5c18.1-0.5,40.9-3.3,43.8-7.4c1.7-2.4,3-13.7,2.8-27.7
					c-0.1-6.2-0.4-12.9-1.1-19.6c-0.1-1.1-0.2-2.2-0.4-3.3c-1.5-12.8-4.4-25.4-9.2-33.9c-8.6-1.9-24.7-0.9-37.8,0.4
					c-0.1,0-0.2,0-0.3,0c-11.3,1.2-20.3,2.6-20.3,2.6C29.6,119,30.3,171,29.3,185.6z"/>
				<path class="st26" d="M46.7,186.1c18.1-0.5,40.9-3.3,43.8-7.4c0.4-0.6,0.8-1.8,1.2-3.5c-15.8,5.6-36.3,5.9-36.3,5.9
					S53.2,183.9,46.7,186.1z"/>
				<path class="st34" d="M61,150.5c16.9,0,26.7,0.2,32.4,0.4c-0.1-6.2-0.4-12.9-1.1-19.6c0.1,6.1-0.8,14.8-0.8,14.8
					S66.1,149.1,61,150.5z"/>
				<path class="st33" d="M45.3,96.2L45,94.7c13.1-1.3,29.2-2.3,37.8-0.4c4.7,8.5,7.6,21,9.2,33.9c-13.9,6.5-30.9,4.7-37.1,3.7
					C54.3,122.6,52.8,113.7,45.3,96.2z"/>
				<path class="st20" d="M29.3,185.6c4.2,0.5,10.5,0.7,17.5,0.5c6.5-2.1,8.7-5,8.7-5s1.2-14.2,0.5-29.7c-0.1-2.1-0.2-4.3-0.4-6.4
					c-0.1-1.6-0.2-3-0.3-4.4c-0.1-1.7-0.2-3.4-0.3-5c-0.6-11.1-1.3-20-10.4-40.9c-11.3,1.2-20.3,2.6-20.3,2.6
					c0.3,1.2,0.6,2.5,0.8,3.9c0.5,2.4,0.9,5.1,1.2,7.9c1.1,8.4,1.9,18.5,2.4,28.7c0,0,0,0,0,0C29.9,157.5,29.8,177.4,29.3,185.6z"/>
				<path class="st33" d="M24.4,97.3c0.3,1.2,0.6,2.5,0.8,3.9c0.5,2.4,0.9,5.1,1.2,7.9c16.2,4.3,3.1,15.1,15.3,23.5
					c9.7,6.7,9.6,8.7,14.3,18.9c-0.1-2.1-0.2-4.3-0.4-6.4c-0.1-1.6-0.2-3-0.3-4.4c-0.1-1.7-0.2-3.4-0.3-5
					c-0.6-11.1-1.3-20-10.4-40.9C33.4,95.9,24.4,97.3,24.4,97.3z"/>
				<path class="st33" d="M29.3,185.6c4.2,0.5,10.5,0.7,17.5,0.5c6.5-2.1,8.7-5,8.7-5s0.2-1.9,0.3-5c0.4-6.7,0.8-19-0.2-31.1
					c-0.1-1.6-0.2-3-0.3-4.4c-0.5,25.9-8.3,36.9-13.4,37.3c-4.8,0.4-10.2-24.5-13.1-40.1c0.9,17.7,1,35.5,0.6,44.9
					C29.4,183.8,29.3,184.8,29.3,185.6z"/>
				<path class="st33" d="M24.4,97.3c0.3,1.2,0.6,2.5,0.8,3.9c8.3-0.3,13.7,1.1,18.5,7.3c5.3,6.7-4,25.8,11.4,27.2
					c-0.6-11.1-1.3-20-10.4-40.9C33.4,95.9,24.4,97.3,24.4,97.3z"/>
				<path class="st35" d="M29.3,185.6c4.2,0.5,10.5,0.7,17.5,0.5c6.5-2.1,8.7-5,8.7-5s0.2-1.9,0.3-5c-0.2,12.3-20,7.3-26.4,6.6
					C29.4,183.8,29.3,184.8,29.3,185.6z"/>
				<path class="st36" d="M24.4,97.3l0.3,1.4l0.3,1.4c2.9-0.8,13.5-1.7,18.9-0.1c0.9,0.3,1.7,0.7,2.3,1.1c3.6,3.1,0.7,23,4.1,26.5
					c0.4,0.4,1.1,0.7,2.1,1c7.2,2,28.8,0.2,35.4-1.8c6.6-2,6.6-19.2,3.4-29.8c-0.2-0.8-0.6-1.5-1.1-2.2c-0.9-1.2-2.3-2-3.8-2.4
					C64.5,88,29.7,93,24.4,97.3z"/>
				<path class="st37" d="M24.4,97.3l0.3,1.4l0.3,1.4c2.9-0.8,13.5-1.7,18.9-0.1c8.5-2.3,29.3-7.4,46.1-5.1c-0.9-1.2-2.3-2-3.8-2.4
					C64.5,88,29.7,93,24.4,97.3z"/>
				<path class="st31" d="M24.7,98.6l0.3,1.4c3.4-1,17.5-2.1,21.1,1c3.6,3.1,0.7,23,4.1,26.5c0.4,0.4,1.1,0.7,2.1,1
					c-3.8-4.3-3.5-21.2-3.4-26C48.8,97.6,38.2,96.1,24.7,98.6z"/>
				<path class="st31" d="M72,185.9c2.6-0.2,4.9-0.4,7-0.5c13.9-0.9,14-0.8,15.8-5.6c0.6-1.7,1.1-4.5,1.5-7.6
					c0.8-7,0.7-16.1-0.8-21.1c-5.2-0.4-17.6-0.5-27.1-0.5c-6.9,0-12.3,0-12.3,0c0,0.6-0.1,1.1-0.1,1.7C54.8,165.9,52,187.5,72,185.9
					z"/>
				<path class="st38" d="M69.8,186c0.7,0,1.4,0,2.2-0.1c2.6-0.2,4.9-0.4,7-0.5c-8.4-0.5-22.1-8.3-10.7-34.8c-4.1,0-7.7,0-9.9,0l0,0
					c-1.5,0-2.4,0-2.4,0C55.1,163.5,51.4,185.8,69.8,186z"/>
				<path class="st33" d="M66.3,163.2c-0.7,8.9,3.9,9.4,9,10.4c3.9,0.8,15.6-0.7,21-1.4c0.8-7,0.7-16.1-0.8-21.1
					c-5.2-0.4-17.6-0.5-27.1-0.5c-6.9,0-12.3,0-12.3,0c0,0.6-0.1,1.1-0.1,1.7C62.9,154.1,67,154.8,66.3,163.2z"/>
				<path class="st33" d="M69.8,186c-14-5.8-14.3-25.1-9.5-34.2l-1.9-1.2l0,0c-1.5,0-2.4,0-2.4,0C55.1,163.5,51.4,185.8,69.8,186z"
					/>
				<path class="st36" d="M68.9,165.6c-0.4,2.3,1.3,4.4,3.6,4.4c0,0,0,0,0.1,0c6.2-0.1,17.1-0.3,23.1-1c2.2-0.2,3.9-2.2,3.7-4.5
					c-0.4-4-1.2-9.6-1.7-13.1l0-0.1c-0.3-1.7-1.7-2.9-3.5-2.9c-7.9,0.2-29.4,0.8-38.3,2.2l0,0.4l-0.1,0.9c0,0,10.4,1,13,2.9
					c0.2,0.1,0.3,0.2,0.4,0.3C70.4,156.4,69.7,161.7,68.9,165.6z"/>
				<path class="st37" d="M55.9,151.9c0,0,10.4,1,13,2.9c5.2-0.9,17.5-2.9,28.8-3.4l0-0.1c-0.3-1.7-1.7-2.9-3.5-2.9
					c-7.9,0.2-29.4,0.8-38.3,2.2l0,0.4L55.9,151.9z"/>
				<path class="st31" d="M68.9,165.6c-0.4,2.3,1.3,4.4,3.6,4.4c-2-1.2-2.4-3.8-2.2-6c0.2-2.8,2.2-8.5-0.1-9.9
					c-2.3-1.4-6.9-2.5-14.3-3l-0.1,0.9c0,0,11.7,1.2,13.4,3.3C70.4,156.4,69.7,161.7,68.9,165.6z"/>
				<path class="st38" d="M80,157.7c0.1,1.2,2.7,2,5.8,1.8c3.1-0.2,5.5-1.4,5.4-2.6c-0.1-1.2-2.7-2-5.8-1.8
					C82.3,155.3,79.9,156.5,80,157.7z"/>
				<path class="st31" d="M80.3,157.9c0.1,1.2,2.7,2,5.8,1.8c3.1-0.2,5.5-1.4,5.4-2.6c-0.1-1.2-2.7-2-5.8-1.8
					C82.6,155.5,80.2,156.6,80.3,157.9z"/>
				<path class="st38" d="M63.6,109.1c0.1,1.9,4.2,3.1,9,2.8c4.8-0.4,8.6-2.2,8.5-4.1c-0.1-1.9-4.2-3.1-9-2.8
					C67.2,105.4,63.4,107.2,63.6,109.1z"/>
				<path class="st31" d="M64.1,109.4c0.1,1.9,4.2,3.1,9,2.8c4.8-0.4,8.6-2.2,8.5-4.1c-0.1-1.9-4.2-3.1-9-2.8
					C67.8,105.6,64,107.5,64.1,109.4z"/>
				<polygon class="st27" points="61.2,125.6 62.3,136.5 66.9,143.1 69.5,136 68.7,125 				"/>
				<polygon class="st26" points="61.6,125.6 62.8,136.5 67.3,143.1 70,136 69.1,125 				"/>
				<path class="st31" d="M64.9,135.8c0,0.6,0.6,1.1,1.2,1c0.6,0,1.1-0.6,1-1.2c0-0.6-0.6-1.1-1.2-1
					C65.3,134.6,64.9,135.2,64.9,135.8z"/>
				<polygon class="st27" points="83.1,167.1 83.6,176.7 87.3,182.8 90,176.7 89.8,166.9 				"/>
				<polygon class="st26" points="83.5,167.1 84,176.7 87.8,182.7 90.4,176.6 90.2,166.9 				"/>
				<path class="st31" d="M85.9,176.2c0,0.5,0.5,1,1,1c0.5,0,1-0.5,0.9-1s-0.5-1-1-0.9S85.9,175.7,85.9,176.2z"/>
				<polygon class="st27" points="80.3,123.8 81.4,133.9 85.7,140 88.2,133.4 87.4,123.3 				"/>
				<polygon class="st26" points="80.7,123.8 81.8,133.8 86.1,139.9 88.6,133.4 87.8,123.2 				"/>
				<path class="st38" d="M78.8,123.7c0,0.6,0.6,1,1.1,1l8.4-0.6c0.5,0,1-0.5,1-1c0,0,0-0.1,0-0.1c0-0.6-0.6-1-1.1-1l-8.4,0.6
					c-0.4,0-0.7,0.3-0.9,0.6C78.9,123.3,78.8,123.5,78.8,123.7z"/>
				<path class="st31" d="M84,133.2c0,0.6,0.5,1,1.1,0.9c0.6,0,1-0.5,1-1.1c0-0.6-0.5-1-1.1-0.9C84.3,132.1,83.9,132.6,84,133.2z"/>
				<g>
					<path class="st27" d="M41.1,187.7c2.5-0.2,4.7-0.6,5.8-1.4c3.7-2.6,3.5-11.1,3.3-20.1c-0.1-5.8-0.3-11.9,0.7-16.3
						c0-0.1-0.1-0.3-0.2-0.3c-0.1,0-0.3,0.1-0.3,0.2c-1,4.5-0.8,10.6-0.7,16.4c0.2,8.9,0.4,17.3-3,19.7c-3.3,2.3-18.2,1.4-19.2,0.1
						c-0.4-0.6,0-6,0.4-11.8c0.6-7.9,1.4-17.8,0.8-24.5c0-0.2-0.1-0.3-0.3-0.3c-0.2,0-0.3,0.1-0.3,0.3c0.5,6.6-0.2,16.5-0.8,24.4
						c-0.6,7.5-0.8,11.4-0.3,12.1C27.8,187.4,35.3,188.2,41.1,187.7z"/>
					<path class="st27" d="M27.1,181.5C27.1,181.5,27.1,181.5,27.1,181.5c7.2-2.2,17.3-17.6,20.9-31.6c0-0.1-0.1-0.3-0.2-0.3
						c-0.1,0-0.3,0.1-0.3,0.2c-3.8,15-14.3,29.3-20.5,31.2c-0.1,0-0.2,0.2-0.2,0.3C26.9,181.4,27,181.5,27.1,181.5z"/>
					<path class="st27" d="M27.6,173.7c0,0,0.1,0,0.1,0c3.8-2.3,10.4-10.5,13.2-23.8c0-0.1-0.1-0.3-0.2-0.3c-0.2,0-0.3,0.1-0.3,0.2
						c-2.7,13-9.4,21.3-12.9,23.4c-0.1,0.1-0.2,0.2-0.1,0.4C27.4,173.7,27.5,173.7,27.6,173.7z"/>
					<path class="st27" d="M28.3,164.1c0.1,0,0.1,0,0.2-0.1c1-1.2,4.9-8.4,6.2-14.1c0-0.1-0.1-0.3-0.2-0.3c-0.1,0-0.3,0.1-0.3,0.2
						c-1.3,5.6-5.1,12.7-6.1,13.9c-0.1,0.1-0.1,0.3,0,0.4C28.2,164.1,28.2,164.1,28.3,164.1z"/>
					<path class="st27" d="M28.6,153.9c0.1,0,0.2-0.1,0.2-0.1c0,0,0.9-1.6,1.9-3.9c0.1-0.1,0-0.3-0.1-0.4c-0.1-0.1-0.3,0-0.4,0.1
						c-1,2.3-1.8,3.8-1.8,3.8c-0.1,0.1,0,0.3,0.1,0.4C28.5,153.9,28.5,153.9,28.6,153.9z"/>
					<path class="st27" d="M30.1,187.3c0,0,0.1,0,0.1,0c5.3-2.7,9.9-11,14-18.4c2.1-3.8,4.1-7.5,5.8-9.5c0.1-0.1,0.1-0.3,0-0.4
						c-0.1-0.1-0.3-0.1-0.4,0c-1.8,2.1-3.7,5.5-5.9,9.6c-4,7.3-8.6,15.5-13.7,18.2c-0.1,0.1-0.2,0.2-0.1,0.4
						C29.9,187.3,30,187.3,30.1,187.3z"/>
					<path class="st27" d="M36.2,187.8C36.2,187.8,36.2,187.8,36.2,187.8c4.6-2,7.9-8.4,10.5-13.6c1.3-2.6,2.4-4.8,3.4-6
						c0.1-0.1,0.1-0.3,0-0.4c-0.1-0.1-0.3-0.1-0.4,0c-1.1,1.2-2.2,3.5-3.5,6.1c-2.6,5.1-5.9,11.5-10.2,13.4
						c-0.1,0.1-0.2,0.2-0.1,0.4C36,187.8,36.1,187.8,36.2,187.8z"/>
					<path class="st27" d="M41.5,187.7C41.5,187.7,41.6,187.7,41.5,187.7c2.8-1,5.4-3.9,8.5-9.4c0.1-0.1,0-0.3-0.1-0.4
						c-0.1-0.1-0.3,0-0.4,0.1c-3.1,5.4-5.6,8.2-8.2,9.2c-0.1,0.1-0.2,0.2-0.2,0.4C41.3,187.6,41.4,187.7,41.5,187.7z"/>
					<path class="st27" d="M49.8,158.7c0,0,0.1,0,0.1,0c0.1-0.1,0.2-0.2,0.1-0.4c-1.8-3.4-5.1-8.5-5.2-8.6c-0.1-0.1-0.3-0.2-0.4-0.1
						c-0.1,0.1-0.2,0.3-0.1,0.4c0,0.1,3.4,5.1,5.1,8.5C49.6,158.6,49.7,158.7,49.8,158.7z"/>
					<path class="st27" d="M50,167.4c0,0,0.1,0,0.1,0c0.1-0.1,0.2-0.3,0.1-0.4c-2.4-3.5-12.4-17.1-12.5-17.3
						c-0.1-0.1-0.3-0.2-0.4-0.1c-0.1,0.1-0.1,0.3-0.1,0.4c0.1,0.1,10.1,13.8,12.5,17.3C49.8,167.4,49.9,167.4,50,167.4z"/>
					<path class="st27" d="M49.9,177.1C49.9,177.1,49.9,177.1,49.9,177.1c0.2,0,0.3-0.2,0.2-0.3c-1.3-5.2-17.5-26.2-18.2-27.1
						c-0.1-0.1-0.3-0.1-0.4-0.1c-0.1,0.1-0.1,0.3-0.1,0.4c0.2,0.2,16.8,21.8,18.1,26.9C49.7,177,49.8,177.1,49.9,177.1z"/>
					<path class="st27" d="M48.1,184.9C48.1,184.9,48.1,184.9,48.1,184.9c0.2,0,0.3-0.2,0.2-0.3c-1.2-6.2-17.2-28.1-19.5-30.5
						c-0.1-0.1-0.3-0.1-0.4,0c-0.1,0.1-0.1,0.3,0,0.4c2.8,2.9,18.2,24.4,19.4,30.3C47.8,184.9,47.9,185,48.1,184.9z"/>
					<path class="st27" d="M44.8,187.2c0,0,0.1,0,0.1,0c0.1-0.1,0.2-0.2,0.1-0.4c-2.9-5.6-14.6-22.9-16.4-25c-0.1-0.1-0.3-0.1-0.4,0
						c-0.1,0.1-0.1,0.3,0,0.4c1.6,1.8,13.3,19,16.4,24.9C44.6,187.1,44.7,187.2,44.8,187.2z"/>
					<path class="st27" d="M38.7,187.8C38.7,187.8,38.8,187.8,38.7,187.8c0.2-0.1,0.3-0.3,0.2-0.4c-3.4-7.3-9.3-17.5-10.8-18.8
						c-0.1-0.1-0.3-0.1-0.4,0c-0.1,0.1-0.1,0.3,0,0.4c1.4,1.2,7.3,11.5,10.7,18.6C38.5,187.8,38.6,187.8,38.7,187.8z"/>
					<path class="st27" d="M33.8,187.7c0,0,0.1,0,0.1,0c0.1-0.1,0.2-0.2,0.1-0.4c-1.9-3.7-6.3-11.2-6.3-11.3
						c-0.1-0.1-0.2-0.2-0.4-0.1c-0.1,0.1-0.2,0.2-0.1,0.4c0,0.1,4.4,7.6,6.3,11.3C33.6,187.7,33.7,187.7,33.8,187.7z"/>
					<path class="st27" d="M29.4,187.2c0.1,0,0.1,0,0.1-0.1c0.1-0.1,0.1-0.3,0.1-0.4c-1.1-1.4-2.4-3.5-2.4-3.6
						c-0.1-0.1-0.2-0.2-0.4-0.1c-0.1,0.1-0.2,0.2-0.1,0.4c0,0,1.3,2.2,2.4,3.6C29.2,187.2,29.3,187.2,29.4,187.2z"/>
					<path class="st31" d="M27.2,147.1l0.1,1.7c0,0.5,0.5,1,1,1c3.4,0,15.2,0.2,22.2,0c0.6,0,1-0.5,1-1l0-0.3l0-1.3
						c0-0.6-0.5-1.1-1.1-1c-7,0.6-14.9,0.3-19.5,0.1c-1.1-0.1-2-0.1-2.6-0.2C27.7,145.9,27.2,146.5,27.2,147.1z"/>
					<path class="st31" d="M27.2,147.1l0.1,1.7c0,0.5,0.5,1,1,1c3.4,0,15.2,0.2,22.2,0c0.6,0,1-0.5,1-1l0-0.3
						c-6.6,0.4-17.8-0.1-20.6-2.3c-1.1-0.1-2-0.1-2.6-0.2C27.7,145.9,27.2,146.5,27.2,147.1z"/>
				</g>
				<path class="st33" d="M78.8,123.7c0,0.6,0.6,1,1.1,1l8.4-0.6c0.5,0,1-0.5,1-1c-5.7,0.8-8.8,0.5-10.4,0.1
					C78.9,123.3,78.8,123.5,78.8,123.7z"/>
				<path class="st38" d="M81.3,167c0,0.6,0.5,1,1.1,1l8.4-0.3c0.6,0,1-0.5,1-1c0,0,0-0.1,0-0.1c0-0.6-0.5-1.1-1.1-1l-8.4,0.3
					c-0.4,0-0.7,0.2-0.9,0.5C81.4,166.6,81.3,166.8,81.3,167z"/>
				<path class="st33" d="M81.3,167c0,0.6,0.5,1,1.1,1l8.4-0.3c0.6,0,1-0.5,1-1c-5.7,0.5-8.8,0.1-10.3-0.3
					C81.4,166.6,81.3,166.8,81.3,167z"/>
				<path class="st38" d="M59.7,125.1c0,0.6,0.6,1,1.1,1l8.4-0.6c0.5,0,1-0.5,1-1c0,0,0-0.1,0-0.1c0-0.6-0.6-1-1.1-1l-8.4,0.6
					c-0.4,0-0.7,0.3-0.9,0.6C59.7,124.7,59.6,124.9,59.7,125.1z"/>
				<path class="st33" d="M59.7,125.1c0,0.6,0.6,1,1.1,1l8.4-0.6c0.5,0,1-0.5,1-1c-5.7,0.8-8.8,0.5-10.4,0.1
					C59.7,124.7,59.6,124.9,59.7,125.1z"/>
				<path class="st39" d="M87.7,95.8c-7.9-0.9-21.6,0.1-32.8,2.5c18.4-0.8,33.5-1.9,36.7,12.4c0-5.1-0.9-10.1-1.4-12.7
					C89.8,96.8,88.9,95.9,87.7,95.8z"/>
				<path class="st39" d="M98.5,160.8c-0.2-2.3-0.8-5.4-1.1-7.2c-0.2-0.8-0.9-1.4-1.8-1.4c-3.1,0.2-10.6,0.8-18.8,2
					C91.4,153.8,95.3,152.1,98.5,160.8z"/>
				<path class="st31" d="M84.3,93.8l1.2,0c0.2,0,0.3-0.1,0.3-0.3l0,0c0-0.2-0.1-0.3-0.3-0.3l-1.2,0c-0.2,0-0.3,0.1-0.3,0.3l0,0
					C84,93.7,84.1,93.8,84.3,93.8z"/>
				<path class="st31" d="M77.4,93.7l1.2,0c0.2,0,0.3-0.1,0.3-0.3l0,0c0-0.2-0.1-0.3-0.3-0.3l-1.2,0c-0.2,0-0.3,0.1-0.3,0.3l0,0
					C77.1,93.6,77.2,93.7,77.4,93.7z"/>
				<path class="st31" d="M73.6,94l1.2-0.1c0.2,0,0.3-0.1,0.3-0.3l0,0c0-0.2-0.1-0.3-0.3-0.3l-1.2,0.1c-0.2,0-0.3,0.1-0.3,0.3l0,0
					C73.3,93.9,73.4,94,73.6,94z"/>
				<path class="st31" d="M95,151.1l1.2-0.1c0.2,0,0.3-0.1,0.3-0.3l0,0c0-0.2-0.1-0.3-0.3-0.3l-1.2,0.1c-0.2,0-0.3,0.1-0.3,0.3l0,0
					C94.7,151,94.8,151.1,95,151.1z"/>
				<path class="st31" d="M91.5,151.2l1.2-0.1c0.2,0,0.3-0.1,0.3-0.3v0c0-0.2-0.1-0.3-0.3-0.3l-1.2,0.1c-0.2,0-0.3,0.1-0.3,0.3l0,0
					C91.2,151.1,91.3,151.3,91.5,151.2z"/>
				<path class="st31" d="M87.3,151.6l1.2-0.1c0.2,0,0.3-0.2,0.2-0.3l0,0c0-0.2-0.2-0.3-0.3-0.2l-1.2,0.1c-0.2,0-0.3,0.2-0.2,0.3
					l0,0C87,151.5,87.2,151.6,87.3,151.6z"/>
				<path class="st31" d="M83,152.1l1.2-0.1c0.2,0,0.3-0.2,0.2-0.3l0,0c0-0.2-0.2-0.3-0.3-0.2l-1.2,0.1c-0.2,0-0.3,0.2-0.2,0.3l0,0
					C82.8,152,82.9,152.1,83,152.1z"/>
				<path class="st31" d="M78.8,152.6l1.2-0.1c0.2,0,0.3-0.2,0.2-0.3l0,0c0-0.2-0.2-0.3-0.3-0.2l-1.2,0.1c-0.2,0-0.3,0.2-0.2,0.3
					l0,0C78.5,152.5,78.6,152.6,78.8,152.6z"/>
				<path class="st31" d="M74.1,153.2l1.2-0.2c0.1,0,0.3-0.2,0.2-0.3l0,0c0-0.1-0.2-0.3-0.3-0.2l-1.2,0.2c-0.1,0-0.3,0.2-0.2,0.3
					l0,0C73.8,153.2,73.9,153.3,74.1,153.2z"/>
				<path class="st31" d="M69.7,94.3l1.2-0.2c0.1,0,0.3-0.2,0.2-0.3l0,0c0-0.1-0.2-0.3-0.3-0.2l-1.2,0.2c-0.1,0-0.3,0.2-0.2,0.3l0,0
					C69.4,94.3,69.5,94.4,69.7,94.3z"/>
				<path class="st31" d="M66.1,94.8l1.2-0.2c0.1,0,0.3-0.2,0.2-0.3l0,0c0-0.1-0.2-0.3-0.3-0.2L66,94.2c-0.1,0-0.3,0.2-0.2,0.3l0,0
					C65.8,94.7,66,94.8,66.1,94.8z"/>
				<path class="st31" d="M62.4,95.3l1.2-0.2c0.1,0,0.3-0.2,0.2-0.3l0,0c0-0.1-0.2-0.3-0.3-0.2l-1.2,0.2c-0.1,0-0.3,0.2-0.2,0.3l0,0
					C62.1,95.2,62.2,95.4,62.4,95.3z"/>
				<path class="st31" d="M58.6,95.9l1.2-0.2c0.1,0,0.2-0.2,0.2-0.3l0,0c0-0.1-0.2-0.2-0.3-0.2l-1.2,0.2c-0.1,0-0.2,0.2-0.2,0.3l0,0
					C58.4,95.9,58.5,96,58.6,95.9z"/>
				<path class="st31" d="M55.1,96.6l1.2-0.2c0.1,0,0.2-0.2,0.2-0.3l0,0c0-0.1-0.2-0.2-0.3-0.2L55,96c-0.1,0-0.2,0.2-0.2,0.3l0,0
					C54.8,96.5,54.9,96.6,55.1,96.6z"/>
				<path class="st31" d="M51.7,97.3l1.2-0.2c0.1,0,0.2-0.2,0.2-0.3l0,0c0-0.1-0.2-0.2-0.3-0.2l-1.2,0.2c-0.1,0-0.2,0.2-0.2,0.3l0,0
					C51.4,97.2,51.5,97.3,51.7,97.3z"/>
				<path class="st31" d="M48.2,98l1.2-0.2c0.1,0,0.2-0.2,0.2-0.3l0,0c0-0.1-0.2-0.2-0.3-0.2L48,97.5c-0.1,0-0.2,0.2-0.2,0.3l0,0
					C47.9,97.9,48,98,48.2,98z"/>
				<path class="st31" d="M80.6,93.7l1.2,0c0.2,0,0.3-0.1,0.3-0.3l0,0c0-0.2-0.1-0.3-0.3-0.3l-1.2,0c-0.2,0-0.3,0.1-0.3,0.3l0,0
					C80.3,93.6,80.5,93.7,80.6,93.7z"/>
			</g>
			<g class="st1">
				<path class="st40" d="M76.7,201H127c9.9,0,12.9-10.9,9-17.5c-0.2-0.3-0.4-0.7-0.6-1c-1.8-2.3-4.6-3.9-8.3-3.9H76.7
					C62.5,178.6,62.5,201,76.7,201z"/>
				<path class="st41" d="M83.9,183.5h53.2c4,6.6,1,17.5-9,17.5H77.8h-1.7C85,200,87.7,189.7,83.9,183.5z"/>
				<path class="st42" d="M77,201h52c7.4,0,10.9-6,10.6-11.8c-0.1-2-0.7-4-1.7-5.6H84.8c3.4,5.6,1.5,14.4-5.3,16.9
					C78.7,200.7,77.9,200.9,77,201z"/>
				<path class="st41" d="M86.1,183.5H136c-0.2-0.3-0.4-0.7-0.6-1L86.1,183.5z"/>
				<path class="st41" d="M80.2,199.7c-4,1.5-8.1,0-10.3-2.1c-1.9-1.9-3-4.6-3-7.4c-0.1-2.8,0.8-5.7,2.7-7.7
					c1.5-1.6,3.6-2.7,6.3-2.9c0.9-0.1,1.3,0,1.6,0.1c1.2,0.2,2.4,1,3.3,2.1c1.6,1.9,2.6,4.8,2.6,7.8c0,2.7-0.7,5.2-2.3,6.9
					c-1.2,1.2-2.9,2.1-5.2,2.1c-1.1,0-2.1-0.2-2.9-0.5c-0.9-0.4-1.6-1-2.2-1.7c-1.2-1.5-1.8-3.5-1.9-5.6c-0.1-2.5,0.6-5,2.1-6.7
					c1-1.2,2.4-2,4.3-2.1c1.3-0.1,2.4,0.3,3.3,1c1.5,1.2,2.5,3.4,2.7,5.6c0.2,1.9-0.1,3.7-1,5.1c-0.4,0.7-1,1.3-1.7,1.7
					c-0.7,0.4-1.5,0.7-2.6,0.8c-1,0.1-1.7-0.1-2.4-0.4c-0.6-0.3-1.1-0.6-1.5-1.1c-0.8-1-1.3-2.4-1.3-3.9c0-1.8,0.6-3.6,1.7-4.7
					c0.7-0.7,1.7-1.2,2.8-1.3c1.1,0,1.9,0.3,2.6,0.9c0.8,0.7,1.3,1.9,1.5,3.1c0.1,1.2-0.2,2.5-0.9,3.4c-0.5,0.7-1.4,1.3-2.5,1.6
					c-0.5,0.1-0.8,0.1-1.1,0c-0.3-0.1-0.5-0.2-0.7-0.4c-0.4-0.4-0.7-1.1-0.8-2c-0.1-1.1,0.2-2.2,0.7-2.9c0.3-0.4,0.6-0.6,0.9-0.7
					c0.4-0.1,0.7-0.1,0.9,0c0.2,0,0.3,0.1,0.4,0.2c0.2,0.2,0.4,0.5,0.4,1c0.1,0.7-0.2,1.4-0.4,1.7c-0.1,0.1-0.2,0.3-0.1,0.5
					c0,0.1,0.1,0.2,0.2,0.3c0.1,0,0.3,0,0.4-0.1c1.2-1.1,1.3-5.1-1.9-4.4c-3.2,0.8-3.2,8.5,1.3,7.6c6-1.3,5-10.8-0.9-10.6
					c-6.9,0.2-7.6,13.5,0.8,13c9.4-0.6,7-16.6-0.9-15.9c-9.9,0.9-9.4,18.7,0.7,18.4c11.9-0.4,9.7-19.1,1.7-20.5
					c-0.4-0.1-0.8-0.1-1.8-0.1c-13.3,0.9-13.1,22.3,0.9,22.3C76.7,201,78.5,200.7,80.2,199.7z"/>
				<path class="st41" d="M87,178.6c3.2,0.8,6.5,3.3,6.8,4.7l1.4,0l-0.7-2.3l-5.6-2.2L87,178.6z"/>
				<path class="st41" d="M95.5,183.6c2.7,4.9,1.4,7,0.7,8.9c-0.8,1.9,0,3.6-0.9,5.7c-0.9,2.1,6.4-5.2,4-9.6
					C96.8,184.2,95.5,183.6,95.5,183.6z"/>
				<path class="st41" d="M77,201h52c7.4,0,10.9-6,10.6-11.8c-1.1,6.4-7.8,8.9-9.8,9.1c-2.4,0.2-5.5-0.7-5.5-0.7s-13,5.4-26.9-0.1
					c-8.2,1.8-14.2,2.8-18,3C78.7,200.7,77.9,200.9,77,201z"/>
				<path class="st42" d="M90.4,178.6c5.2,0.6,9.3,4.5,10.2,9.7c0.9,5.1-1.5,10.2-6.1,12.7h-3.2c4.6-2.4,7.1-7.6,6.1-12.7
					c-0.9-5.1-5.1-9-10.2-9.7H90.4z"/>
				<path class="st27" d="M91.1,178.6c5.2,0.6,9.3,4.5,10.2,9.7c0.9,5.1-1.5,10.2-6.1,12.7H92c4.6-2.4,7.1-7.6,6.1-12.7
					c-0.9-5.1-5.1-9-10.2-9.7H91.1z"/>
				<path class="st41" d="M122.2,182.1c2.1,2.8,3.1,6.9,1.7,9.5c-1.4,2.6-0.5,4.7-1.7,7.5c-1.1,2.7,5-6.1,5-6.5
					c0-0.5-2.9-9.9-3.2-10.2C123.6,182,122.2,182.1,122.2,182.1z"/>
				<path class="st41" d="M114.5,178.6c2.2,0.6,5.6,2.7,6.2,4.2l1.5,0l-0.9-1.9l-3.9-2L114.5,178.6z"/>
				<path class="st43" d="M90.7,178.6c5.2,0.6,9.3,4.5,10.2,9.7c0.9,5.1-1.5,10.2-6.1,12.7h-3.2c4.6-2.4,7.1-7.6,6.1-12.7
					c-0.9-5.1-5.1-9-10.2-9.7H90.7z"/>
				<path class="st27" d="M118.6,178.6c5.2,0.6,9.3,4.5,10.2,9.7c0.9,5.1-1.5,10.2-6.1,12.7h-3.2c4.6-2.4,7.1-7.6,6.1-12.7
					c-0.9-5.1-5.1-9-10.2-9.7H118.6z"/>
				<path class="st42" d="M117.7,178.6c5.2,0.6,9.3,4.5,10.2,9.7c0.9,5.1-1.5,10.2-6.1,12.7h-3.2c4.6-2.4,7.1-7.6,6.1-12.7
					c-0.9-5.1-5.1-9-10.2-9.7H117.7z"/>
				<path class="st43" d="M118,178.6c5.2,0.6,9.3,4.5,10.2,9.7c0.9,5.1-1.5,10.2-6.1,12.7H119c4.6-2.4,7.1-7.6,6.1-12.7
					c-0.9-5.1-5.1-9-10.2-9.7H118z"/>
				<path class="st39" d="M113.7,179.2c-6.9-0.3-18.5-0.1-18.5-0.1s1.3,0.3,1.9,0.9C97.7,180.6,113.7,179.2,113.7,179.2z"/>
				<path class="st39" d="M87.3,179.2l-7.5-0.2c0,0,2.5,0.7,3.7,2C84.8,182.2,84.6,179.2,87.3,179.2z"/>
				<path class="st39" d="M122.2,178.9c2.7,0,6.9,0.1,8.1,0.7C131.6,180.2,122.2,178.9,122.2,178.9z"/>
				<path class="st39" d="M94.4,184.1h-8.7c0,0,1.1,1.7,1.1,2.1C86.7,186.6,91.3,184.1,94.4,184.1z"/>
				<path class="st39" d="M100.5,184.1h21.1c0,0-19.2,0.3-19.8,0.9C101.3,185.5,100.5,184.1,100.5,184.1z"/>
				<path class="st39" d="M128.1,184.1h9.2c0,0-7.2,0.2-7.6,1.1C129.3,186,128.1,184.1,128.1,184.1z"/>
			</g>
			<path class="st17" d="M5,223.5c-4.3-24.2,5.5-42.2,5.5-42.2s-9,9.5-11.7,26.6c-2.8-11.4-1.1-20.2-1.1-20.2s-2.9,6.2-3.1,11.7
				c-0.6-11.8-11.3-21.6-11.3-21.6s11.1,17.7,3.4,35.3c-0.5-12-10.5-14.9-10.5-14.9s7.4,4.6,3.2,16.1c-2.2-9.6-7.4-9.9-7.4-9.9
				s8.6,8.2,2.6,20.7L5,223.5z"/>
			<path class="st17" d="M23.8,230.7c9.2-22.7,27.1-32.8,27.1-32.8s-12.7,3.2-24,16.3c3.7-11.2,9.9-17.7,9.9-17.7s-5.7,3.7-8.8,8.3
				c5.8-10.4,1.9-24.3,1.9-24.3s0,20.9-15.9,31.7c6-10.4-1-18.2-1-18.2s3.9,7.8-5.9,15.4C10.3,200,6,197,6,197s2.9,11.6-8.8,18.9
				L23.8,230.7z"/>
			<path class="st17" d="M29.2,233.5c9.2-22.7,27.1-32.8,27.1-32.8s-12.7,3.2-24,16.3c3.7-11.2,9.9-17.7,9.9-17.7s-5.7,3.7-8.8,8.3
				c5.8-10.4,1.9-24.3,1.9-24.3s0,20.9-15.9,31.7c6-10.4-1-18.2-1-18.2s3.9,7.8-5.9,15.4c3.3-9.3-1-12.3-1-12.3s2.9,11.6-8.8,18.9
				L29.2,233.5z"/>
			<path class="st17" d="M54.8,224.7c-4.3-24.2,5.5-42.2,5.5-42.2s-9,9.5-11.7,26.6c-2.8-11.4-1.1-20.2-1.1-20.2s-2.9,6.2-3.1,11.7
				C43.9,188.7,33.2,179,33.2,179s11.1,17.7,3.4,35.3c-0.5-12-10.5-14.9-10.5-14.9s7.4,4.6,3.2,16.1c-2.2-9.6-7.4-9.9-7.4-9.9
				s8.6,8.2,2.6,20.7L54.8,224.7z"/>
			<path class="st17" d="M64.4,230.6c9.2-22.7,27.1-32.8,27.1-32.8s-12.7,3.2-24,16.3c3.7-11.2,9.9-17.7,9.9-17.7s-5.7,3.7-8.8,8.3
				c5.8-10.4,1.9-24.3,1.9-24.3s0,20.9-15.9,31.7c6-10.4-1-18.2-1-18.2s3.9,7.8-5.9,15.4c3.3-9.3-1-12.3-1-12.3s2.9,11.6-8.8,18.9
				L64.4,230.6z"/>
			<path class="st17" d="M153.9,231.6c-1.2-24.5,10.7-41.2,10.7-41.2s-10.1,8.3-14.9,24.9c-1.3-11.7,1.5-20.2,1.5-20.2
				s-3.6,5.8-4.5,11.2c0.9-11.8-8.6-22.8-8.6-22.8s8.8,18.9-1.1,35.4c1-12-8.5-16.1-8.5-16.1s6.8,5.5,1.1,16.4
				c-1-9.8-6.1-10.7-6.1-10.7s7.5,9.2,0,20.9L153.9,231.6z"/>
			<g class="st44">
				<path class="st45" d="M165.8,148.7c0,31.9-21,25.9-46.8,25.9c-25.9,0-46.8,5.9-46.8-25.9c0-31.9,21-57.7,46.8-57.7
					C144.8,91.1,165.8,116.9,165.8,148.7z"/>
				<path class="st46" d="M164.9,148.7c0,31.2-20.6,25.5-45.9,25.5c-25.4,0-45.9,5.8-45.9-25.5c0-31.2,20.6-56.6,45.9-56.6
					C144.4,92.2,164.9,117.5,164.9,148.7z"/>
				<path class="st47" d="M164,148.7c0,30.6-20.2,25-45,25c-24.9,0-45,5.6-45-25c0-30.6,20.2-55.5,45-55.5
					C143.9,93.3,164,118.1,164,148.7z"/>
				<path class="st48" d="M163.2,148.7c0,30-19.8,24.5-44.2,24.5c-24.4,0-44.2,5.5-44.2-24.5c0-30,19.8-54.4,44.2-54.4
					C143.4,94.3,163.2,118.7,163.2,148.7z"/>
				<path class="st49" d="M162.3,148.7c0,29.4-19.4,24.1-43.3,24.1c-23.9,0-43.3,5.4-43.3-24.1c0-29.4,19.4-53.3,43.3-53.3
					C142.9,95.4,162.3,119.3,162.3,148.7z"/>
				<path class="st50" d="M161.4,148.7c0,28.8-19,23.6-42.4,23.6c-23.4,0-42.4,5.2-42.4-23.6c0-28.8,19-52.2,42.4-52.2
					C142.4,96.5,161.4,119.9,161.4,148.7z"/>
				<path class="st51" d="M160.5,148.7c0,28.2-18.6,23.1-41.5,23.1c-22.9,0-41.5,5.1-41.5-23.1c0-28.2,18.6-51.1,41.5-51.1
					C141.9,97.6,160.5,120.5,160.5,148.7z"/>
				<path class="st52" d="M159.6,148.7c0,27.6-18.2,22.7-40.6,22.7c-22.4,0-40.6,5-40.6-22.7c0-27.6,18.2-50,40.6-50
					C141.4,98.7,159.6,121.1,159.6,148.7z"/>
				<path class="st53" d="M158.7,148.7c0,27-17.8,22.2-39.7,22.2c-21.9,0-39.7,4.8-39.7-22.2c0-27,17.8-49,39.7-49
					C140.9,99.8,158.7,121.7,158.7,148.7z"/>
				<path class="st54" d="M157.8,148.7c0,26.4-17.4,21.7-38.9,21.7c-21.5,0-38.9,4.7-38.9-21.7c0-26.4,17.4-47.9,38.9-47.9
					C140.4,100.9,157.8,122.3,157.8,148.7z"/>
				<path class="st55" d="M157,148.7c0,25.8-17,21.3-38,21.3c-21,0-38,4.6-38-21.3c0-25.8,17-46.8,38-46.8
					C140,102,157,122.9,157,148.7z"/>
				<path class="st56" d="M156.1,148.7c0,25.2-16.6,20.8-37.1,20.8c-20.5,0-37.1,4.4-37.1-20.8c0-25.2,16.6-45.7,37.1-45.7
					C139.5,103.1,156.1,123.5,156.1,148.7z"/>
				<path class="st57" d="M155.2,148.7c0,24.6-16.2,20.3-36.2,20.3c-20,0-36.2,4.3-36.2-20.3c0-24.6,16.2-44.6,36.2-44.6
					C139,104.1,155.2,124.1,155.2,148.7z"/>
				<path class="st58" d="M154.3,148.7c0,24-15.8,19.9-35.3,19.9c-19.5,0-35.3,4.2-35.3-19.9c0-24,15.8-43.5,35.3-43.5
					C138.5,105.2,154.3,124.7,154.3,148.7z"/>
				<path class="st59" d="M153.4,148.7c0,23.4-15.4,19.4-34.4,19.4c-19,0-34.4,4-34.4-19.4c0-23.4,15.4-42.4,34.4-42.4
					C138,106.3,153.4,125.3,153.4,148.7z"/>
				<path class="st60" d="M152.5,148.7c0,22.8-15,18.9-33.6,18.9c-18.5,0-33.6,3.9-33.6-18.9c0-22.8,15-41.3,33.6-41.3
					C137.5,107.4,152.5,125.9,152.5,148.7z"/>
				<path class="st61" d="M151.7,148.7c0,22.2-14.6,18.5-32.7,18.5c-18,0-32.7,3.8-32.7-18.5c0-22.2,14.6-40.2,32.7-40.2
					C137,108.5,151.7,126.5,151.7,148.7z"/>
				<path class="st62" d="M150.8,148.7c0,21.6-14.2,18-31.8,18c-17.6,0-31.8,3.6-31.8-18c0-21.6,14.2-39.2,31.8-39.2
					C136.5,109.6,150.8,127.1,150.8,148.7z"/>
				<path class="st63" d="M149.9,148.7c0,21-13.8,17.5-30.9,17.5c-17.1,0-30.9,3.5-30.9-17.5c0-21,13.8-38.1,30.9-38.1
					C136.1,110.7,149.9,127.7,149.9,148.7z"/>
				<path class="st64" d="M149,148.7c0,20.4-13.4,17.1-30,17.1c-16.6,0-30,3.4-30-17.1c0-20.4,13.4-37,30-37
					C135.6,111.8,149,128.3,149,148.7z"/>
				<path class="st65" d="M148.1,148.7c0,19.8-13,16.6-29.1,16.6c-16.1,0-29.1,3.2-29.1-16.6c0-19.8,13-35.9,29.1-35.9
					C135.1,112.9,148.1,128.9,148.1,148.7z"/>
				<path class="st66" d="M147.2,148.7c0,19.2-12.6,16.1-28.2,16.1c-15.6,0-28.2,3.1-28.2-16.1c0-19.2,12.6-34.8,28.2-34.8
					C134.6,113.9,147.2,129.5,147.2,148.7z"/>
				<path class="st67" d="M146.3,148.7c0,18.6-12.2,15.7-27.4,15.7c-15.1,0-27.4,2.9-27.4-15.7c0-18.6,12.2-33.7,27.4-33.7
					C134.1,115,146.3,130.1,146.3,148.7z"/>
				<path class="st68" d="M145.5,148.7c0,18-11.9,15.2-26.5,15.2c-14.6,0-26.5,2.8-26.5-15.2c0-18,11.9-32.6,26.5-32.6
					C133.6,116.1,145.5,130.7,145.5,148.7z"/>
				<path class="st69" d="M144.6,148.7c0,17.4-11.5,14.7-25.6,14.7c-14.1,0-25.6,2.7-25.6-14.7c0-17.4,11.5-31.5,25.6-31.5
					C133.1,117.2,144.6,131.3,144.6,148.7z"/>
				<path class="st70" d="M143.7,148.7c0,16.8-11.1,14.3-24.7,14.3c-13.6,0-24.7,2.5-24.7-14.3c0-16.8,11.1-30.4,24.7-30.4
					C132.6,118.3,143.7,131.9,143.7,148.7z"/>
				<path class="st71" d="M142.8,148.7c0,16.2-10.7,13.8-23.8,13.8c-13.2,0-23.8,2.4-23.8-13.8c0-16.2,10.7-29.3,23.8-29.3
					C132.1,119.4,142.8,132.5,142.8,148.7z"/>
				<path class="st72" d="M141.9,148.7c0,15.6-10.3,13.3-22.9,13.3c-12.7,0-22.9,2.3-22.9-13.3c0-15.6,10.3-28.3,22.9-28.3
					C131.7,120.5,141.9,133.1,141.9,148.7z"/>
				<path class="st73" d="M141,148.7c0,15-9.9,12.9-22.1,12.9c-12.2,0-22.1,2.1-22.1-12.9c0-15,9.9-27.2,22.1-27.2
					C131.2,121.6,141,133.7,141,148.7z"/>
				<path class="st74" d="M140.2,148.7c0,14.4-9.5,12.4-21.2,12.4c-11.7,0-21.2,2-21.2-12.4c0-14.4,9.5-26.1,21.2-26.1
					C130.7,122.7,140.2,134.3,140.2,148.7z"/>
				<path class="st75" d="M139.3,148.7c0,13.8-9.1,11.9-20.3,11.9c-11.2,0-20.3,1.9-20.3-11.9c0-13.8,9.1-25,20.3-25
					C130.2,123.8,139.3,134.9,139.3,148.7z"/>
				<path class="st76" d="M138.4,148.7c0,13.2-8.7,11.5-19.4,11.5c-10.7,0-19.4,1.7-19.4-11.5c0-13.2,8.7-23.9,19.4-23.9
					C129.7,124.8,138.4,135.5,138.4,148.7z"/>
				<path class="st77" d="M137.5,148.7c0,12.6-8.3,11-18.5,11c-10.2,0-18.5,1.6-18.5-11c0-12.6,8.3-22.8,18.5-22.8
					C129.2,125.9,137.5,136.1,137.5,148.7z"/>
				<path class="st78" d="M136.6,148.7c0,12-7.9,10.5-17.6,10.5c-9.7,0-17.6,1.5-17.6-10.5c0-12,7.9-21.7,17.6-21.7
					C128.7,127,136.6,136.7,136.6,148.7z"/>
				<path class="st79" d="M135.7,148.7c0,11.4-7.5,10.1-16.7,10.1c-9.3,0-16.7,1.3-16.7-10.1c0-11.4,7.5-20.6,16.7-20.6
					C128.2,128.1,135.7,137.3,135.7,148.7z"/>
				<path class="st80" d="M134.9,148.7c0,10.8-7.1,9.6-15.9,9.6c-8.8,0-15.9,1.2-15.9-9.6c0-10.8,7.1-19.5,15.9-19.5
					C127.8,129.2,134.9,137.9,134.9,148.7z"/>
				<path class="st81" d="M134,148.7c0,10.2-6.7,9.1-15,9.1c-8.3,0-15,1.1-15-9.1c0-10.2,6.7-18.5,15-18.5
					C127.3,130.3,134,138.6,134,148.7z"/>
				<path class="st82" d="M133.1,148.7c0,9.6-6.3,8.7-14.1,8.7c-7.8,0-14.1,0.9-14.1-8.7c0-9.6,6.3-17.4,14.1-17.4
					C126.8,131.4,133.1,139.2,133.1,148.7z"/>
				<path class="st83" d="M132.2,148.7c0,9-5.9,8.2-13.2,8.2c-7.3,0-13.2,0.8-13.2-8.2c0-9,5.9-16.3,13.2-16.3
					C126.3,132.5,132.2,139.8,132.2,148.7z"/>
				<path class="st84" d="M131.3,148.7c0,8.4-5.5,7.7-12.3,7.7c-6.8,0-12.3,0.7-12.3-7.7c0-8.4,5.5-15.2,12.3-15.2
					C125.8,133.6,131.3,140.4,131.3,148.7z"/>
				<path class="st85" d="M130.4,148.7c0,7.8-5.1,7.3-11.4,7.3c-6.3,0-11.4,0.5-11.4-7.3c0-7.8,5.1-14.1,11.4-14.1
					C125.3,134.6,130.4,141,130.4,148.7z"/>
				<path class="st86" d="M129.5,148.7c0,7.2-4.7,6.8-10.6,6.8c-5.8,0-10.6,0.4-10.6-6.8c0-7.2,4.7-13,10.6-13
					C124.8,135.7,129.5,141.6,129.5,148.7z"/>
				<path class="st87" d="M128.7,148.7c0,6.6-4.3,6.3-9.7,6.3c-5.3,0-9.7,0.3-9.7-6.3c0-6.6,4.3-11.9,9.7-11.9
					C124.3,136.8,128.7,142.2,128.7,148.7z"/>
				<path class="st88" d="M127.8,148.7c0,6-3.9,5.9-8.8,5.9c-4.9,0-8.8,0.1-8.8-5.9c0-6,3.9-10.8,8.8-10.8
					C123.8,137.9,127.8,142.8,127.8,148.7z"/>
				<path class="st89" d="M126.9,148.7c0,5.4-3.5,5.4-7.9,5.4c-4.4,0-7.9,0-7.9-5.4c0-5.4,3.5-9.7,7.9-9.7
					C123.4,139,126.9,143.4,126.9,148.7z"/>
				<path class="st90" d="M126,148.7c0,4.8-3.1,4.9-7,4.9c-3.9,0-7-0.1-7-4.9c0-4.8,3.1-8.7,7-8.7C122.9,140.1,126,144,126,148.7z"
					/>
				<path class="st91" d="M125.1,148.7c0,4.2-2.7,4.5-6.1,4.5c-3.4,0-6.1-0.3-6.1-4.5s2.7-7.6,6.1-7.6
					C122.4,141.2,125.1,144.6,125.1,148.7z"/>
				<path class="st92" d="M124.2,148.7c0,3.6-2.4,4-5.3,4c-2.9,0-5.3-0.4-5.3-4c0-3.6,2.4-6.5,5.3-6.5
					C121.9,142.3,124.2,145.2,124.2,148.7z"/>
				<path class="st93" d="M123.4,148.7c0,3-2,3.5-4.4,3.5c-2.4,0-4.4-0.5-4.4-3.5s2-5.4,4.4-5.4
					C121.4,143.4,123.4,145.8,123.4,148.7z"/>
				<path class="st94" d="M122.5,148.7c0,2.4-1.6,3-3.5,3c-1.9,0-3.5-0.7-3.5-3c0-2.4,1.6-4.3,3.5-4.3
					C120.9,144.5,122.5,146.4,122.5,148.7z"/>
				<path class="st95" d="M121.6,148.7c0,1.8-1.2,2.6-2.6,2.6s-2.6-0.8-2.6-2.6s1.2-3.2,2.6-3.2S121.6,147,121.6,148.7z"/>
				<ellipse class="st96" cx="119" cy="148.7" rx="1.7" ry="2.1"/>
			</g>
		</g>
	</g>
</g>
</svg>
